<?xml version="1.0" encoding="utf-8"?>
<!-- Generator: Adobe Illustrator 24.0.2, SVG Export Plug-In . SVG Version: 6.00 Build 0)  -->
<svg version="1.1" id="PICTS" xmlns="http://www.w3.org/2000/svg" xmlns:xlink="http://www.w3.org/1999/xlink" x="0px" y="0px"
	 viewBox="0 0 595.28 841.89" style="enable-background:new 0 0 595.28 841.89;" xml:space="preserve">
<style type="text/css">
	.st0{fill:#FFC000;}
	.st1{display:none;}
	.st2{display:inline;}
	.st3{fill:#FFFFFF;}
	.st4{display:inline;fill:#FFC000;}
</style>
<g id="CONTACT">
</g>
<g id="PORTFOLIO">
</g>
<g id="CENTRE_D_x27_INTÉRÊTS_1_">
	<g id="ENSEIGNEMENT">
	</g>
	<g id="PROGRAMMATION_x28_INFORMATIQUE_x29_">
	</g>
	<g id="ENVIRONNEMENT">
	</g>
	<g id="BÉNÉVOLAT">
	</g>
	<g id="ASSAINISSEMENT">
	</g>
	<g id="LECTURE">
		<g>
			<path class="st0" d="M123.83,371.35c0-0.06,0-0.1,0-0.15c0-0.78,0-1.57,0-2.35c0-0.28,0.15-0.39,0.54-0.39c2.8,0,5.6,0,8.4,0
				c0.99,0,1.73,0.31,2.29,0.89c0.03,0.03,0.06,0.06,0.07,0.08c0.21-0.17,0.4-0.35,0.64-0.5c0.47-0.31,1.05-0.46,1.69-0.46
				c2.83,0,5.65,0,8.48,0c0.37,0,0.53,0.12,0.53,0.38c0,0.79,0,1.58,0,2.37c0,0.04,0,0.09,0,0.15c0.07,0,0.13,0,0.19,0
				c0.55,0,1.1,0,1.65,0c0.38,0,0.54,0.11,0.54,0.38c0,4.03,0,8.06,0,12.1c0,0.26-0.16,0.38-0.53,0.38c-8.78,0-17.55,0-26.33,0
				c-0.37,0-0.53-0.12-0.53-0.38c0-4.03,0-8.06,0-12.1c0-0.27,0.16-0.39,0.54-0.39C122.6,371.35,123.2,371.35,123.83,371.35z
				 M134.72,381.62c0-0.07,0-0.1,0-0.14c0-3.6,0-7.21,0-10.81c0-0.15-0.02-0.3-0.07-0.45c-0.16-0.55-0.8-1.16-1.95-1.15
				c-2.59,0.02-5.18,0.01-7.77,0.01c-0.07,0-0.14,0-0.22,0c0,3.99,0,7.97,0,11.96c0.09,0,0.16,0,0.23,0c2.62,0,5.25,0,7.87,0
				c0.21,0,0.43,0.02,0.64,0.05C133.93,381.17,134.33,381.35,134.72,381.62z M145.6,369.09c-0.06,0-0.1-0.01-0.14-0.01
				c-2.69,0-5.38,0-8.07,0c-0.38,0-0.71,0.09-1,0.26c-0.57,0.33-0.81,0.78-0.81,1.29c0,3.62,0,7.24,0,10.86
				c0,0.03,0.01,0.07,0.01,0.11c0.03-0.01,0.05-0.02,0.06-0.03c0.54-0.37,1.18-0.53,1.92-0.53c2.6,0.01,5.19,0,7.79,0
				c0.24,0,0.24,0,0.24-0.18c0-3.87,0-7.74,0-11.61C145.6,369.21,145.6,369.15,145.6,369.09z M147.96,383.58c0-3.87,0-7.73,0-11.59
				c-0.5,0-0.99,0-1.5,0c0,0.06,0,0.11,0,0.16c0,3.03,0,6.06,0,9.09c0,0.33-0.13,0.43-0.58,0.43c-2.79,0-5.59,0-8.38,0
				c-0.2,0-0.41,0.02-0.6,0.06c-0.48,0.11-0.81,0.35-1.04,0.66c-0.15,0.2-0.37,0.33-0.7,0.33c-0.34,0-0.57-0.13-0.73-0.34
				c-0.3-0.4-0.75-0.66-1.39-0.71c-0.19-0.02-0.38-0.01-0.58-0.01c-2.7,0-5.41,0-8.11,0c-0.15,0-0.31,0-0.4-0.1
				c-0.07-0.09-0.12-0.19-0.12-0.29c-0.01-3.04,0-6.09,0-9.13c0-0.05,0-0.1,0-0.15c-0.51,0-1.01,0-1.5,0c0,3.87,0,7.73,0,11.59
				C130.88,383.58,139.41,383.58,147.96,383.58z"/>
			<path class="st0" d="M129.7,377.91c0.76,0,1.52,0,2.29,0c0.21,0,0.32-0.05,0.32-0.16c0-0.1-0.11-0.16-0.32-0.16
				c-0.01,0-0.01,0-0.02,0c-1.51,0-3.02,0-4.52,0c-0.06,0-0.11,0-0.17,0.01c-0.11,0.02-0.2,0.08-0.17,0.16
				c0.02,0.06,0.11,0.11,0.19,0.15c0.03,0.02,0.1,0,0.15,0C128.2,377.91,128.95,377.91,129.7,377.91z M129.7,374.55
				c-0.43,0-0.87,0-1.3,0c-0.35,0-0.7,0-1.05,0c-0.14,0-0.23,0.05-0.24,0.15c-0.01,0.1,0.09,0.15,0.22,0.16c0.04,0,0.08,0,0.12,0
				c1.5,0,3,0,4.51,0c0.06,0,0.13,0,0.18-0.01c0.13-0.02,0.2-0.11,0.15-0.2c-0.05-0.09-0.15-0.11-0.27-0.11
				C131.25,374.55,130.47,374.55,129.7,374.55z M129.72,371.82c0.75,0,1.49,0,2.24,0c0.06,0,0.14,0.01,0.18-0.01
				c0.07-0.04,0.16-0.1,0.16-0.15c0-0.05-0.1-0.1-0.16-0.14c-0.03-0.02-0.09-0.01-0.13-0.01c-1.53,0-3.05,0-4.58,0
				c-0.05,0-0.12-0.01-0.15,0.01c-0.07,0.04-0.15,0.1-0.15,0.15c0,0.05,0.08,0.11,0.15,0.14c0.04,0.02,0.12,0.01,0.18,0.01
				C128.2,371.82,128.96,371.82,129.72,371.82z"/>
			<path class="st0" d="M129.7,377.91c-0.75,0-1.5,0-2.25,0c-0.05,0-0.12,0.01-0.15,0c-0.07-0.04-0.17-0.09-0.19-0.15
				c-0.03-0.08,0.05-0.14,0.17-0.16c0.05-0.01,0.11-0.01,0.17-0.01c1.51,0,3.02,0,4.52,0c0.01,0,0.01,0,0.02,0
				c0.21,0,0.32,0.06,0.32,0.16c0,0.1-0.11,0.16-0.32,0.16C131.23,377.91,130.47,377.91,129.7,377.91z"/>
			<path class="st0" d="M129.7,374.55c0.77,0,1.55,0,2.32,0c0.12,0,0.23,0.02,0.27,0.11c0.04,0.08-0.02,0.17-0.15,0.2
				c-0.06,0.01-0.12,0.01-0.18,0.01c-1.5,0-3,0-4.51,0c-0.04,0-0.08,0-0.12,0c-0.14-0.01-0.23-0.06-0.22-0.16
				c0.01-0.1,0.1-0.15,0.24-0.15c0.35,0,0.7,0,1.05,0C128.83,374.55,129.27,374.55,129.7,374.55z"/>
			<path class="st0" d="M129.72,371.82c-0.76,0-1.52,0-2.27,0c-0.06,0-0.14,0.01-0.18-0.01c-0.07-0.03-0.15-0.09-0.15-0.14
				c0-0.05,0.09-0.11,0.15-0.15c0.03-0.02,0.1-0.01,0.15-0.01c1.53,0,3.05,0,4.58,0c0.05,0,0.11-0.01,0.13,0.01
				c0.07,0.04,0.16,0.09,0.16,0.14c0,0.05-0.09,0.11-0.16,0.15c-0.04,0.02-0.12,0.01-0.18,0.01
				C131.21,371.82,130.47,371.82,129.72,371.82z"/>
			<path class="st0" d="M140.58,374.87c-0.75,0-1.5,0-2.25,0c-0.06,0-0.13,0.01-0.16-0.01c-0.07-0.04-0.17-0.1-0.16-0.16
				c0-0.05,0.11-0.1,0.18-0.15c0.02-0.01,0.08,0,0.12,0c1.52,0,3.05,0,4.57,0c0.04,0,0.08,0,0.12,0c0.12,0.01,0.19,0.06,0.19,0.14
				c0.01,0.09-0.06,0.15-0.18,0.16c-0.05,0.01-0.11,0.01-0.17,0.01C142.08,374.87,141.33,374.87,140.58,374.87z"/>
			<path class="st0" d="M140.59,377.91c-0.76,0-1.51,0-2.27,0c-0.05,0-0.09,0-0.14,0c-0.12-0.01-0.21-0.07-0.19-0.14
				c0.01-0.06,0.1-0.12,0.17-0.16c0.03-0.02,0.11-0.01,0.16-0.01c1.51,0,3.02,0,4.52,0c0.06,0,0.11,0,0.17,0.01
				c0.11,0.02,0.17,0.08,0.17,0.16c-0.01,0.08-0.08,0.13-0.19,0.15c-0.04,0-0.09,0-0.14,0C142.1,377.91,141.35,377.91,140.59,377.91
				z"/>
			<path class="st0" d="M140.6,371.51c0.75,0,1.5,0,2.26,0c0.05,0,0.12-0.01,0.15,0.01c0.07,0.04,0.16,0.08,0.18,0.14
				c0.03,0.08-0.04,0.14-0.16,0.16c-0.06,0.01-0.12,0.01-0.19,0.01c-1.5,0-3,0-4.49,0c-0.25,0-0.35-0.05-0.35-0.16
				c0-0.11,0.1-0.15,0.36-0.15C139.09,371.51,139.85,371.51,140.6,371.51z"/>
		</g>
	</g>
	<g id="CENTRE_D_x27_INTÉRÊTS" class="st1">
		<g class="st2">
			<path class="st0" d="M140.66,427.26c10.02,0.04,18.08,8.38,18.05,18.67c-0.03,10.33-8.12,18.65-18.1,18.62
				c-10.01-0.03-18.08-8.38-18.05-18.67C122.59,435.57,130.7,427.22,140.66,427.26z M140.63,440.06c-0.13-0.14-0.21-0.23-0.3-0.33
				c-2.06-2.08-5.23-2.17-7.23-0.2c-1.55,1.52-1.94,3.9-1.01,6.14c0.55,1.32,1.36,2.46,2.33,3.46c1.63,1.68,3.31,3.29,4.98,4.93
				c0.4,0.39,0.81,0.76,1.2,1.13c0.07-0.03,0.1-0.03,0.12-0.05c2.08-2.04,4.19-4.04,6.22-6.13c1.1-1.13,2.02-2.45,2.47-4.02
				c0.57-1.97,0.29-3.8-1.12-5.31c-1.37-1.47-3.08-1.87-4.98-1.37C142.26,438.59,141.39,439.2,140.63,440.06z"/>
		</g>
	</g>
</g>
<g id="COMPÉTENCES" class="st1">
	<g class="st2">
		<path class="st0" d="M139.32,415c-10.02,0.03-18.18-7.97-18.14-17.62c0.03-9.45,7.92-17.56,18.24-17.53
			c10.1,0.03,18.17,7.93,18.11,17.69C157.46,407.36,149.19,415.04,139.32,415z M137.6,395.28c0.01,0,0.02,0,0.02,0
			c0-0.32-0.01-0.63,0-0.95c0.01-0.16-0.05-0.22-0.21-0.24c-0.65-0.06-1.3-0.12-1.95-0.21c-0.29-0.04-0.39,0.07-0.43,0.33
			c-0.09,0.5-0.22,0.99-0.31,1.5c-0.05,0.3-0.16,0.48-0.51,0.54c-0.27,0.04-0.53,0.16-0.79,0.27c-0.22,0.09-0.39,0.06-0.56-0.11
			c-0.41-0.42-0.85-0.81-1.26-1.23c-0.17-0.18-0.31-0.19-0.5-0.03c-0.44,0.36-0.87,0.72-1.33,1.06c-0.25,0.19-0.3,0.34-0.1,0.61
			c0.33,0.44,0.61,0.91,0.93,1.36c0.13,0.18,0.13,0.34,0.02,0.53c-0.16,0.26-0.31,0.53-0.43,0.82c-0.09,0.21-0.21,0.3-0.45,0.29
			c-0.65-0.02-1.31,0.02-1.96-0.04c-0.15-0.01-0.25,0.01-0.27,0.18c-0.07,0.65-0.14,1.3-0.22,1.95c-0.03,0.25,0.1,0.34,0.33,0.38
			c0.6,0.11,1.19,0.24,1.79,0.34c0.22,0.04,0.32,0.14,0.37,0.34c0.07,0.3,0.15,0.59,0.26,0.88c0.08,0.23,0.03,0.38-0.15,0.54
			c-0.43,0.4-0.84,0.82-1.27,1.22c-0.16,0.15-0.2,0.27-0.04,0.46c0.41,0.46,0.81,0.94,1.2,1.41c0.13,0.16,0.25,0.17,0.41,0.06
			c0.41-0.26,0.85-0.49,1.24-0.77c0.4-0.29,0.76-0.4,1.19-0.05c0.13,0.11,0.3,0.17,0.47,0.23c0.24,0.09,0.33,0.25,0.32,0.5
			c-0.01,0.6,0,1.2,0,1.8c0,0.17,0.02,0.31,0.25,0.33c0.59,0.04,1.19,0.08,1.78,0.14c0.33,0.03,0.49-0.07,0.54-0.4
			c0.09-0.54,0.23-1.06,0.33-1.6c0.04-0.19,0.13-0.29,0.33-0.34c0.33-0.07,0.66-0.15,0.98-0.26c0.25-0.08,0.42-0.03,0.59,0.15
			c0.39,0.41,0.8,0.79,1.18,1.21c0.17,0.19,0.3,0.2,0.5,0.04c0.48-0.38,0.96-0.76,1.45-1.12c0.22-0.16,0.21-0.3,0.06-0.51
			c-0.35-0.48-0.67-0.98-1.02-1.46c-0.13-0.18-0.15-0.34,0.01-0.52c0.2-0.24,0.34-0.51,0.47-0.79c0.1-0.23,0.26-0.32,0.52-0.31
			c0.57,0.01,1.15,0,1.72,0.01c0.26,0,0.36-0.08,0.4-0.34c0.08-0.56,0.07-1.13,0.24-1.67c0.07-0.23-0.04-0.35-0.29-0.39
			c-0.63-0.11-1.26-0.25-1.89-0.36c-0.2-0.04-0.31-0.12-0.33-0.33c-0.03-0.34-0.12-0.67-0.27-0.98c-0.1-0.21-0.05-0.36,0.11-0.51
			c0.43-0.4,0.84-0.82,1.27-1.22c0.18-0.16,0.21-0.3,0.05-0.49c-0.4-0.45-0.8-0.91-1.19-1.38c-0.14-0.17-0.26-0.18-0.44-0.05
			c-0.5,0.34-1.01,0.66-1.5,1c-0.19,0.14-0.35,0.14-0.53,0c-0.26-0.19-0.55-0.34-0.86-0.45c-0.24-0.08-0.31-0.23-0.3-0.47
			C137.61,395.86,137.6,395.57,137.6,395.28z M136.01,387.99c-0.91-0.01-0.9,0-1,0.89c-0.1,0.87-0.17,0.78,0.74,0.91
			c0.62,0.09,1,0.29,1.09,0.93c0.03,0.22,0.02,0.36-0.14,0.51c-0.27,0.25-0.53,0.51-0.8,0.76c-0.13,0.12-0.16,0.23-0.02,0.37
			c0.25,0.27,0.49,0.55,0.72,0.84c0.16,0.2,0.3,0.2,0.5,0.06c0.29-0.2,0.59-0.37,0.88-0.55c0.13-0.08,0.26-0.14,0.43-0.07
			c0.76,0.29,0.83,0.38,0.83,1.15c0,0.03,0,0.07,0,0.1c0,0.8,0,0.8,0.8,0.89c1.04,0.12,0.85,0.08,1.03-0.72
			c0.18-0.78,0.17-0.77,0.96-1c0.25-0.07,0.42-0.02,0.59,0.16c0.22,0.24,0.47,0.47,0.71,0.71c0.13,0.13,0.26,0.17,0.42,0.04
			c0.31-0.24,0.62-0.48,0.93-0.72c0.15-0.11,0.15-0.23,0.05-0.37c-0.23-0.32-0.44-0.64-0.66-0.96c-0.06-0.09-0.13-0.18-0.09-0.31
			c0.19-0.6,0.54-0.85,1.17-0.85c1.01,0,1.01,0,1.11-0.96c0.07-0.67,0.08-0.7-0.64-0.8c-0.64-0.08-1.11-0.26-1.14-0.98
			c0-0.02-0.01-0.04-0.02-0.06c-0.09-0.17-0.04-0.29,0.09-0.42c0.29-0.27,0.56-0.54,0.85-0.81c0.12-0.11,0.14-0.21,0.02-0.35
			c-0.26-0.29-0.52-0.58-0.76-0.89c-0.13-0.16-0.26-0.16-0.42-0.05c-0.25,0.17-0.51,0.32-0.75,0.51c-0.27,0.22-0.48,0.19-0.8,0.05
			c-0.54-0.23-0.65-0.52-0.61-1.07c0.07-0.98,0.19-0.88-0.81-0.97c-0.03,0-0.07-0.01-0.1-0.02c-0.78-0.11-0.83-0.12-0.92,0.64
			c-0.08,0.63-0.32,1.01-1,1.12c-0.21,0.03-0.35,0.03-0.49-0.12c-0.26-0.26-0.53-0.51-0.79-0.77c-0.13-0.13-0.25-0.14-0.39-0.02
			c-0.28,0.22-0.55,0.45-0.84,0.66c-0.21,0.16-0.23,0.31-0.08,0.52c0.2,0.28,0.39,0.56,0.58,0.85c0.07,0.11,0.11,0.21,0.06,0.35
			c-0.29,0.78-0.35,0.83-1.22,0.82C136.04,387.99,136.03,387.99,136.01,387.99z M149.33,396.83c0-0.08-0.01-0.16,0-0.24
			c0.05-0.35-0.13-0.45-0.46-0.47c-0.83-0.05-0.82-0.06-1.01,0.72c-0.02,0.08-0.04,0.15-0.06,0.23c-0.03,0.11-0.09,0.17-0.2,0.22
			c-0.59,0.27-0.62,0.26-1.09-0.18c-0.11-0.1-0.21-0.21-0.32-0.31c-0.07-0.06-0.16-0.15-0.24-0.09c-0.3,0.22-0.64,0.41-0.85,0.69
			c-0.14,0.19,0.19,0.39,0.3,0.6c0.06,0.11,0.14,0.21,0.21,0.31c0.05,0.08,0.07,0.16,0.04,0.26c-0.18,0.58-0.39,0.72-1.02,0.66
			c-0.62-0.06-0.62-0.06-0.71,0.55c-0.1,0.69-0.1,0.7,0.61,0.82c0.39,0.06,0.67,0.17,0.75,0.61c0.05,0.26,0.03,0.43-0.17,0.6
			c-0.16,0.13-0.29,0.29-0.45,0.43c-0.16,0.14-0.16,0.27-0.02,0.43c0.61,0.73,0.6,0.73,1.43,0.24c0.14-0.08,0.27-0.17,0.45-0.11
			c0.55,0.18,0.64,0.29,0.64,0.85c0,0.16,0,0.32,0,0.47c0,0.1,0.01,0.23,0.14,0.25c0.34,0.06,0.71,0.18,1.03,0.05
			c0.25-0.1,0.16-0.42,0.24-0.64c0.01-0.04,0.03-0.09,0.03-0.13c-0.01-0.42,0.35-0.41,0.62-0.52c0.25-0.1,0.41-0.01,0.58,0.16
			c0.71,0.7,0.71,0.69,1.45,0.03c0.01-0.01,0.02-0.02,0.03-0.02c0.15-0.11,0.16-0.23,0.06-0.38c-0.15-0.21-0.3-0.43-0.45-0.65
			c-0.07-0.11-0.12-0.21-0.05-0.34c0.19-0.39,0.42-0.7,0.95-0.59c0.15,0.03,0.3,0,0.45,0c0.09,0,0.21-0.01,0.23-0.11
			c0.08-0.34,0.19-0.71,0.11-1.03c-0.07-0.25-0.45-0.16-0.68-0.24c-0.12-0.04-0.25-0.05-0.38-0.08c-0.1-0.02-0.16-0.07-0.21-0.16
			c-0.25-0.52-0.22-0.71,0.21-1.12c0.06-0.06,0.11-0.12,0.17-0.17c0.27-0.2,0.35-0.4,0.04-0.65c-0.15-0.12-0.27-0.28-0.38-0.44
			c-0.13-0.18-0.24-0.16-0.4-0.04c-0.2,0.15-0.42,0.28-0.64,0.42c-0.11,0.07-0.22,0.11-0.36,0.05
			C149.33,397.5,149.32,397.49,149.33,396.83z"/>
		<path class="st0" d="M137.9,401.77c-0.01,1.34-1.04,2.36-2.36,2.36c-1.31,0-2.44-1.07-2.41-2.29c0.03-1.42,1.07-2.4,2.53-2.38
			C136.86,399.48,137.91,400.57,137.9,401.77z"/>
		<path class="st0" d="M140.64,387.76c0.92-0.01,1.65,0.68,1.66,1.58c0.02,0.88-0.75,1.66-1.63,1.68c-0.91,0.01-1.72-0.74-1.72-1.59
			C138.97,388.44,139.65,387.77,140.64,387.76z"/>
		<path class="st0" d="M146.94,400.29c0-0.75,0.53-1.26,1.3-1.26c0.71,0,1.27,0.53,1.28,1.22c0.01,0.69-0.61,1.31-1.29,1.3
			C147.51,401.53,146.94,400.97,146.94,400.29z"/>
	</g>
</g>
<g id="EXPÉRIENCES_PROFESSIONNELLES" class="st1">
	<g class="st2">
		<path class="st0" d="M120.6,349.6c0-0.69,0-1.37,0-2.06c0.02-0.1,0.05-0.2,0.06-0.3c0.18-2.45,0.83-4.79,2.07-6.93
			c3.34-5.76,8.43-8.9,15.23-9.3c3.26-0.19,6.37,0.48,9.23,2.03c5.96,3.22,9.2,8.17,9.63,14.79c0.2,3.17-0.52,6.2-2.1,8.99
			c-2.81,4.96-7.1,7.99-12.84,9.06c-0.69,0.13-1.4,0.19-2.1,0.28c-0.71,0-1.42,0-2.12,0c-0.09-0.02-0.18-0.05-0.27-0.06
			c-2.22-0.14-4.36-0.66-6.35-1.61c-5.56-2.66-8.96-6.94-10.15-12.86C120.75,350.96,120.7,350.28,120.6,349.6z M135.09,342.05
			c-0.38,0-0.86,0-1.33,0c-0.58,0-0.7,0.12-0.7,0.68c0,3.89,0,7.78,0,11.67c0,0.54,0.13,0.68,0.68,0.68c3.68,0,7.36,0,11.04,0
			c0.54,0,0.68-0.13,0.68-0.64c0-3.93,0-7.85,0-11.78c0-0.48-0.14-0.61-0.63-0.62c-0.45,0-0.9,0-1.43,0
			c0.35-0.27,0.32-0.56,0.25-0.84c-0.19-0.8-0.88-1.36-1.73-1.36c-1.72-0.02-3.44-0.02-5.17,0c-0.88,0.01-1.59,0.6-1.74,1.43
			C134.98,341.51,135.06,341.77,135.09,342.05z M131.94,348.58c0-1.97,0-3.94,0-5.9c0-0.49-0.15-0.63-0.66-0.62
			c-1.12,0.01-1.9,0.75-1.9,1.84c-0.01,3.11-0.01,6.22,0,9.34c0,1.07,0.72,1.79,1.81,1.86c0.57,0.04,0.75-0.12,0.75-0.67
			C131.94,352.47,131.94,350.52,131.94,348.58z M146.58,348.58c0,1.96,0,3.91,0,5.87c0,0.51,0.19,0.67,0.71,0.64
			c1.1-0.06,1.82-0.79,1.83-1.88c0.01-1.6,0-3.2,0-4.8c0-1.49,0.01-2.97,0-4.46c-0.01-1.11-0.75-1.86-1.85-1.89
			c-0.54-0.02-0.69,0.13-0.69,0.66C146.58,344.66,146.58,346.62,146.58,348.58z"/>
		<path class="st3" d="M135.09,342.05c-0.03-0.28-0.11-0.54-0.07-0.77c0.15-0.83,0.86-1.42,1.74-1.43c1.72-0.02,3.44-0.02,5.17,0
			c0.85,0.01,1.53,0.56,1.73,1.36c0.07,0.28,0.11,0.57-0.25,0.84c0.53,0,0.98,0,1.43,0c0.49,0,0.63,0.14,0.63,0.62
			c0,3.93,0,7.85,0,11.78c0,0.51-0.14,0.64-0.68,0.64c-3.68,0-7.36,0-11.04,0c-0.55,0-0.68-0.14-0.68-0.68c0-3.89,0-7.78,0-11.67
			c0-0.56,0.13-0.68,0.7-0.68C134.23,342.05,134.71,342.05,135.09,342.05z M143,342.04c-0.07-0.16-0.17-0.32-0.21-0.49
			c-0.13-0.57-0.43-0.82-1.03-0.83c-0.67-0.01-1.34,0-2.02,0c-0.97,0-1.93-0.01-2.9,0c-0.5,0-0.85,0.3-0.95,0.72
			c-0.05,0.2-0.12,0.4-0.19,0.6C138.12,342.04,140.57,342.04,143,342.04z"/>
		<path class="st3" d="M131.94,348.58c0,1.95,0,3.89,0,5.84c0,0.55-0.18,0.71-0.75,0.67c-1.09-0.07-1.8-0.8-1.81-1.86
			c-0.01-3.11-0.01-6.22,0-9.34c0-1.08,0.78-1.82,1.9-1.84c0.51-0.01,0.66,0.13,0.66,0.62
			C131.94,344.64,131.94,346.61,131.94,348.58z"/>
		<path class="st3" d="M146.58,348.58c0-1.96,0-3.91,0-5.87c0-0.53,0.15-0.67,0.69-0.66c1.1,0.03,1.84,0.79,1.85,1.89
			c0.01,1.49,0,2.97,0,4.46c0,1.6,0.01,3.2,0,4.8c-0.01,1.09-0.72,1.81-1.83,1.88c-0.53,0.03-0.71-0.14-0.71-0.64
			C146.58,352.49,146.58,350.53,146.58,348.58z"/>
		<path class="st0" d="M143,342.04c-2.43,0-4.88,0-7.29,0c0.06-0.2,0.14-0.4,0.19-0.6c0.1-0.42,0.46-0.71,0.95-0.72
			c0.97-0.01,1.93,0,2.9,0c0.67,0,1.34,0,2.02,0c0.6,0.01,0.9,0.26,1.03,0.83C142.83,341.72,142.93,341.87,143,342.04z"/>
	</g>
</g>
<g id="FORMATIONS" class="st1">
	<circle class="st4" cx="138" cy="298.74" r="17.5"/>
	<g class="st2">
		<path class="st3" d="M147.9,297.17c-0.58,0.39-1.12,0.75-1.65,1.12c-0.06,0.04-0.08,0.17-0.08,0.26c0,1.38-0.04,2.75,0.01,4.13
			c0.08,2.37-0.95,4.15-2.82,5.5c-1.72,1.25-3.67,1.77-5.77,1.78c-2.14,0.01-4.13-0.51-5.88-1.79c-1.25-0.91-2.24-2.03-2.61-3.58
			c-0.12-0.49-0.18-1.01-0.19-1.52c-0.02-1.5-0.01-3,0-4.51c0-0.17-0.05-0.28-0.19-0.37c-1.06-0.71-2.12-1.42-3.18-2.14
			c-0.91-0.61-0.9-1.57,0.04-2.14c3.73-2.24,7.46-4.47,11.19-6.72c0.54-0.33,1.02-0.32,1.56,0c3.65,2.2,7.3,4.39,10.96,6.58
			c0.13,0.08,0.27,0.15,0.39,0.23c0.36,0.23,0.55,0.57,0.55,0.99c0,1.5,0,3-0.01,4.51c0,0.71-0.49,1.24-1.15,1.24
			c-0.67,0-1.15-0.53-1.15-1.26C147.9,298.75,147.9,297.99,147.9,297.17z M128.17,295.06c0.07,0.05,0.11,0.08,0.14,0.11
			c3.02,2.04,6.04,4.07,9.05,6.12c0.16,0.11,0.25,0.06,0.38-0.03c2.77-1.87,5.54-3.74,8.32-5.61c0.27-0.18,0.54-0.37,0.84-0.57
			c-0.1-0.07-0.16-0.11-0.23-0.15c-2.98-1.79-5.95-3.57-8.92-5.36c-0.17-0.1-0.28-0.08-0.43,0.01c-2.2,1.33-4.41,2.65-6.61,3.97
			C129.87,294.04,129.04,294.54,128.17,295.06z M131.21,299.9c0,1.18-0.01,2.29,0,3.41c0.01,0.83,0.33,1.56,0.9,2.17
			c0.54,0.59,1.17,1.06,1.89,1.42c1.35,0.67,2.79,0.85,4.27,0.75c1.75-0.13,3.28-0.76,4.53-2c0.69-0.69,1.06-1.51,1.06-2.48
			c0-1.01,0-2.01,0-3.02c0-0.06-0.02-0.13-0.03-0.21c-0.1,0.06-0.16,0.11-0.23,0.15c-1.77,1.19-3.53,2.38-5.3,3.57
			c-0.57,0.38-0.98,0.38-1.54,0c-1.51-1.02-3.02-2.04-4.54-3.06C131.91,300.36,131.58,300.15,131.21,299.9z"/>
	</g>
</g>
</svg>
