<?xml version="1.0" encoding="utf-8"?>
<!-- Generator: Adobe Illustrator 24.0.2, SVG Export Plug-In . SVG Version: 6.00 Build 0)  -->
<svg version="1.1" id="PICTS" xmlns="http://www.w3.org/2000/svg" xmlns:xlink="http://www.w3.org/1999/xlink" x="0px" y="0px"
	 viewBox="0 0 595.28 841.89" style="enable-background:new 0 0 595.28 841.89;" xml:space="preserve">
<style type="text/css">
	.st0{fill:#FFC000;}
	.st1{fill:#FFFFFF;}
	.st2{display:none;}
	.st3{display:inline;fill:#FFC000;}
	.st4{display:inline;}
</style>
<g id="EXPÉRIENCES_PROFESSIONNELLES">
	<g>
		<path class="st0" d="M120.6,349.6c0-0.69,0-1.37,0-2.06c0.02-0.1,0.05-0.2,0.06-0.3c0.18-2.45,0.83-4.79,2.07-6.93
			c3.34-5.76,8.43-8.9,15.23-9.3c3.26-0.19,6.37,0.48,9.23,2.03c5.96,3.22,9.2,8.17,9.63,14.79c0.2,3.17-0.52,6.2-2.1,8.99
			c-2.81,4.96-7.1,7.99-12.84,9.06c-0.69,0.13-1.4,0.19-2.1,0.28c-0.71,0-1.42,0-2.12,0c-0.09-0.02-0.18-0.05-0.27-0.06
			c-2.22-0.14-4.36-0.66-6.35-1.61c-5.56-2.66-8.96-6.94-10.15-12.86C120.75,350.96,120.7,350.28,120.6,349.6z M135.09,342.05
			c-0.38,0-0.86,0-1.33,0c-0.58,0-0.7,0.12-0.7,0.68c0,3.89,0,7.78,0,11.67c0,0.54,0.13,0.68,0.68,0.68c3.68,0,7.36,0,11.04,0
			c0.54,0,0.68-0.13,0.68-0.64c0-3.93,0-7.85,0-11.78c0-0.48-0.14-0.61-0.63-0.62c-0.45,0-0.9,0-1.43,0
			c0.35-0.27,0.32-0.56,0.25-0.84c-0.19-0.8-0.88-1.36-1.73-1.36c-1.72-0.02-3.44-0.02-5.17,0c-0.88,0.01-1.59,0.6-1.74,1.43
			C134.98,341.51,135.06,341.77,135.09,342.05z M131.94,348.58c0-1.97,0-3.94,0-5.9c0-0.49-0.15-0.63-0.66-0.62
			c-1.12,0.01-1.9,0.75-1.9,1.84c-0.01,3.11-0.01,6.22,0,9.34c0,1.07,0.72,1.79,1.81,1.86c0.57,0.04,0.75-0.12,0.75-0.67
			C131.94,352.47,131.94,350.52,131.94,348.58z M146.58,348.58c0,1.96,0,3.91,0,5.87c0,0.51,0.19,0.67,0.71,0.64
			c1.1-0.06,1.82-0.79,1.83-1.88c0.01-1.6,0-3.2,0-4.8c0-1.49,0.01-2.97,0-4.46c-0.01-1.11-0.75-1.86-1.85-1.89
			c-0.54-0.02-0.69,0.13-0.69,0.66C146.58,344.66,146.58,346.62,146.58,348.58z"/>
		<path class="st1" d="M135.09,342.05c-0.03-0.28-0.11-0.54-0.07-0.77c0.15-0.83,0.86-1.42,1.74-1.43c1.72-0.02,3.44-0.02,5.17,0
			c0.85,0.01,1.53,0.56,1.73,1.36c0.07,0.28,0.11,0.57-0.25,0.84c0.53,0,0.98,0,1.43,0c0.49,0,0.63,0.14,0.63,0.62
			c0,3.93,0,7.85,0,11.78c0,0.51-0.14,0.64-0.68,0.64c-3.68,0-7.36,0-11.04,0c-0.55,0-0.68-0.14-0.68-0.68c0-3.89,0-7.78,0-11.67
			c0-0.56,0.13-0.68,0.7-0.68C134.23,342.05,134.71,342.05,135.09,342.05z M143,342.04c-0.07-0.16-0.17-0.32-0.21-0.49
			c-0.13-0.57-0.43-0.82-1.03-0.83c-0.67-0.01-1.34,0-2.02,0c-0.97,0-1.93-0.01-2.9,0c-0.5,0-0.85,0.3-0.95,0.72
			c-0.05,0.2-0.12,0.4-0.19,0.6C138.12,342.04,140.57,342.04,143,342.04z"/>
		<path class="st1" d="M131.94,348.58c0,1.95,0,3.89,0,5.84c0,0.55-0.18,0.71-0.75,0.67c-1.09-0.07-1.8-0.8-1.81-1.86
			c-0.01-3.11-0.01-6.22,0-9.34c0-1.08,0.78-1.82,1.9-1.84c0.51-0.01,0.66,0.13,0.66,0.62
			C131.94,344.64,131.94,346.61,131.94,348.58z"/>
		<path class="st1" d="M146.58,348.58c0-1.96,0-3.91,0-5.87c0-0.53,0.15-0.67,0.69-0.66c1.1,0.03,1.84,0.79,1.85,1.89
			c0.01,1.49,0,2.97,0,4.46c0,1.6,0.01,3.2,0,4.8c-0.01,1.09-0.72,1.81-1.83,1.88c-0.53,0.03-0.71-0.14-0.71-0.64
			C146.58,352.49,146.58,350.53,146.58,348.58z"/>
		<path class="st0" d="M143,342.04c-2.43,0-4.88,0-7.29,0c0.06-0.2,0.14-0.4,0.19-0.6c0.1-0.42,0.46-0.71,0.95-0.72
			c0.97-0.01,1.93,0,2.9,0c0.67,0,1.34,0,2.02,0c0.6,0.01,0.9,0.26,1.03,0.83C142.83,341.72,142.93,341.87,143,342.04z"/>
	</g>
</g>
<g id="FORMATION" class="st2">
	<circle class="st3" cx="138" cy="298.74" r="17.5"/>
	<g class="st4">
		<path class="st1" d="M147.9,297.17c-0.58,0.39-1.12,0.75-1.65,1.12c-0.06,0.04-0.08,0.17-0.08,0.26c0,1.38-0.04,2.75,0.01,4.13
			c0.08,2.37-0.95,4.15-2.82,5.5c-1.72,1.25-3.67,1.77-5.77,1.78c-2.14,0.01-4.13-0.51-5.88-1.79c-1.25-0.91-2.24-2.03-2.61-3.58
			c-0.12-0.49-0.18-1.01-0.19-1.52c-0.02-1.5-0.01-3,0-4.51c0-0.17-0.05-0.28-0.19-0.37c-1.06-0.71-2.12-1.42-3.18-2.14
			c-0.91-0.61-0.9-1.57,0.04-2.14c3.73-2.24,7.46-4.47,11.19-6.72c0.54-0.33,1.02-0.32,1.56,0c3.65,2.2,7.3,4.39,10.96,6.58
			c0.13,0.08,0.27,0.15,0.39,0.23c0.36,0.23,0.55,0.57,0.55,0.99c0,1.5,0,3-0.01,4.51c0,0.71-0.49,1.24-1.15,1.24
			c-0.67,0-1.15-0.53-1.15-1.26C147.9,298.75,147.9,297.99,147.9,297.17z M128.17,295.06c0.07,0.05,0.11,0.08,0.14,0.11
			c3.02,2.04,6.04,4.07,9.05,6.12c0.16,0.11,0.25,0.06,0.38-0.03c2.77-1.87,5.54-3.74,8.32-5.61c0.27-0.18,0.54-0.37,0.84-0.57
			c-0.1-0.07-0.16-0.11-0.23-0.15c-2.98-1.79-5.95-3.57-8.92-5.36c-0.17-0.1-0.28-0.08-0.43,0.01c-2.2,1.33-4.41,2.65-6.61,3.97
			C129.87,294.04,129.04,294.54,128.17,295.06z M131.21,299.9c0,1.18-0.01,2.29,0,3.41c0.01,0.83,0.33,1.56,0.9,2.17
			c0.54,0.59,1.17,1.06,1.89,1.42c1.35,0.67,2.79,0.85,4.27,0.75c1.75-0.13,3.28-0.76,4.53-2c0.69-0.69,1.06-1.51,1.06-2.48
			c0-1.01,0-2.01,0-3.02c0-0.06-0.02-0.13-0.03-0.21c-0.1,0.06-0.16,0.11-0.23,0.15c-1.77,1.19-3.53,2.38-5.3,3.57
			c-0.57,0.38-0.98,0.38-1.54,0c-1.51-1.02-3.02-2.04-4.54-3.06C131.91,300.36,131.58,300.15,131.21,299.9z"/>
	</g>
</g>
</svg>
