<?xml version="1.0" encoding="utf-8"?>
<!-- Generator: Adobe Illustrator 24.0.2, SVG Export Plug-In . SVG Version: 6.00 Build 0)  -->
<svg version="1.1" id="PICTS" xmlns="http://www.w3.org/2000/svg" xmlns:xlink="http://www.w3.org/1999/xlink" x="0px" y="0px"
	 viewBox="0 0 595.28 841.89" style="enable-background:new 0 0 595.28 841.89;" xml:space="preserve">
<style type="text/css">
	.st0{fill:#FFC000;stroke:#FFC000;stroke-width:0.25;stroke-miterlimit:10;}
	.st1{display:none;}
	.st2{display:inline;}
	.st3{fill:#FFC000;}
	.st4{fill:#FEFEFE;}
	.st5{fill:#FFFFFF;}
	.st6{display:inline;fill:#FFC000;}
</style>
<g id="CONTACT">
</g>
<g id="PORTFOLIO">
	<g>
		<path class="st0" d="M141.12,426.88c0.07,0.04,0.16,0.06,0.24,0.06c1.28,0.08,2.53,0.31,3.76,0.68c0.97,0.28,1.91,0.64,2.82,1.09
			c0.87,0.42,1.7,0.91,2.5,1.47c0.67,0.46,1.3,0.98,1.91,1.53c0.44,0.4,0.84,0.82,1.24,1.25c1.11,1.2,2.04,2.54,2.82,4.01
			c0.57,1.07,1.03,2.2,1.4,3.37c0.36,1.14,0.6,2.32,0.74,3.52c0.05,0.4,0.08,0.8,0.1,1.21c0.02,0.43,0.06,0.86,0.05,1.29
			c-0.03,1.33-0.15,2.65-0.42,3.96c-0.37,1.8-0.98,3.49-1.8,5.11c-0.54,1.06-1.18,2.05-1.91,2.98c-0.4,0.51-0.8,1.01-1.25,1.46
			c-1.28,1.31-2.68,2.43-4.24,3.33c-1.7,0.98-3.5,1.66-5.39,2.06c-0.65,0.14-1.32,0.22-1.98,0.29c-0.96,0.1-1.93,0.1-2.89,0.04
			c-1.33-0.08-2.65-0.33-3.94-0.71c-1.17-0.35-2.31-0.82-3.39-1.4c-1.27-0.68-2.45-1.51-3.54-2.48c-0.41-0.37-0.82-0.73-1.2-1.14
			c-1.12-1.2-2.09-2.52-2.9-3.99c-1.13-2.04-1.87-4.24-2.23-6.58c-0.09-0.57-0.16-1.15-0.18-1.74c-0.01-0.28-0.02-0.56-0.13-0.82
			c0-0.33,0-0.66,0-0.99c0.11-0.25,0.12-0.51,0.13-0.78c0-0.41,0.05-0.81,0.1-1.21c0.15-1.18,0.4-2.34,0.75-3.47
			c0.38-1.23,0.88-2.41,1.49-3.53c0.65-1.19,1.4-2.3,2.27-3.31c0.51-0.6,1.06-1.17,1.64-1.69c0.56-0.51,1.14-0.99,1.76-1.43
			c0.88-0.63,1.8-1.18,2.77-1.64c0.93-0.44,1.88-0.81,2.86-1.08c1.2-0.34,2.42-0.57,3.66-0.64c0.08-0.01,0.17-0.02,0.24-0.06
			C139.69,426.88,140.41,426.88,141.12,426.88z M139.87,449.61c2.5,0,5,0,7.5,0c1.61,0,3.22,0,4.82,0c0.41,0,0.42-0.02,0.42-0.45
			c0-2.08,0-4.15,0-6.23c0-0.11,0-0.23-0.02-0.34c-0.08-0.44-0.34-0.69-0.76-0.72c-0.12-0.01-0.24-0.01-0.36-0.01
			c-7.75,0-15.51,0-23.26,0c-0.11,0-0.21,0-0.32,0c-0.43,0.03-0.73,0.33-0.77,0.79c-0.01,0.09-0.01,0.18-0.01,0.27
			c0,2.06,0,4.13,0,6.19c0,0.08,0,0.15,0,0.23c0.01,0.2,0.06,0.25,0.24,0.26c0.13,0.01,0.26,0.01,0.39,0.01
			C131.79,449.61,135.83,449.61,139.87,449.61z M139.9,449.85c-4.06,0-8.13,0-12.19,0c-0.13,0-0.26,0-0.39,0.01
			c-0.12,0.01-0.17,0.07-0.19,0.19c-0.01,0.1-0.01,0.2-0.01,0.3c0,2.04,0,4.08,0,6.12c0,0.1,0,0.2,0.01,0.3
			c0.04,0.45,0.4,0.75,0.73,0.74c0.11,0,0.21,0,0.32,0c7.78,0,15.56,0,23.34,0c0.12,0,0.24,0,0.36-0.01
			c0.34-0.02,0.55-0.21,0.67-0.54c0.06-0.17,0.07-0.35,0.07-0.52c0-2.05,0-4.11,0-6.16c0-0.09,0-0.18-0.01-0.27
			c-0.01-0.1-0.07-0.16-0.16-0.17c-0.14-0.01-0.29-0.01-0.43-0.01C147.97,449.85,143.94,449.85,139.9,449.85z M139.09,441.63
			c3.63,0,7.26,0,10.9,0c0.13,0,0.26,0,0.39-0.01c0.12-0.01,0.17-0.09,0.15-0.21c-0.02-0.11-0.06-0.22-0.09-0.33
			c-0.28-0.97-0.57-1.93-0.85-2.9c-0.43-1.45-0.85-2.9-1.27-4.35c-0.03-0.11-0.07-0.22-0.11-0.32c-0.03-0.08-0.09-0.12-0.17-0.1
			c-0.1,0.02-0.21,0.05-0.31,0.08c-0.9,0.3-1.8,0.6-2.69,0.9c-0.76,0.25-1.52,0.5-2.29,0.76c-1.66,0.55-3.32,1.1-4.98,1.65
			c-0.86,0.29-1.73,0.57-2.59,0.86c-1.67,0.55-3.34,1.1-5.01,1.66c-0.84,0.28-1.68,0.55-2.53,0.83c-0.07,0.02-0.14,0.04-0.2,0.07
			c-0.13,0.06-0.17,0.13-0.14,0.27c0.09,0.33,0.19,0.65,0.29,0.98c0.03,0.11,0.11,0.17,0.21,0.17c0.13,0.01,0.26,0.01,0.39,0.01
			C131.82,441.63,135.45,441.63,139.09,441.63z M151.31,441.63c0.02,0,0.13,0,0.24-0.02c0.08-0.01,0.13-0.08,0.11-0.16
			c-0.02-0.09-0.04-0.17-0.06-0.26c-0.22-0.76-0.44-1.52-0.67-2.29c-0.4-1.38-0.81-2.76-1.21-4.14c-0.03-0.1-0.06-0.19-0.1-0.29
			c-0.04-0.1-0.1-0.13-0.2-0.1c-0.16,0.04-0.32,0.09-0.48,0.15c-0.13,0.05-0.16,0.12-0.12,0.27c0.01,0.05,0.03,0.1,0.04,0.15
			c0.14,0.47,0.28,0.94,0.42,1.41c0.3,1.02,0.59,2.03,0.89,3.05c0.18,0.63,0.37,1.26,0.56,1.88c0.1,0.32,0.11,0.32,0.43,0.33
			C151.18,441.63,151.21,441.63,151.31,441.63z M131.32,438.64c-0.04-0.06-0.11-0.04-0.16-0.04c-1.07,0-2.14,0-3.21,0
			c-0.06,0-0.12,0-0.18,0.01c-0.39,0.05-0.68,0.34-0.72,0.76c-0.02,0.17-0.01,0.35,0,0.53c0,0.11,0.06,0.15,0.17,0.12
			c0.03-0.01,0.07-0.02,0.1-0.03c1.28-0.42,2.56-0.84,3.84-1.27C131.23,438.71,131.29,438.7,131.32,438.64z M152.54,440.63
			C152.54,440.63,152.55,440.63,152.54,440.63c0-0.32,0-0.63,0-0.95c0-0.17-0.01-0.33-0.07-0.48c-0.12-0.34-0.34-0.54-0.68-0.58
			c-0.11-0.01-0.21-0.01-0.32-0.01c-0.38,0-0.39,0.01-0.28,0.41c0.2,0.7,0.41,1.4,0.61,2.1c0.15,0.51,0.15,0.51,0.59,0.71
			c0.09,0.04,0.14,0.01,0.14-0.09C152.55,441.36,152.54,440.99,152.54,440.63z M127.12,440.65c-0.02,0-0.05,0-0.07,0
			c0,0.4,0,0.8,0,1.21c0,0.05,0,0.11,0.06,0.12c0.05,0.01,0.08-0.03,0.12-0.06c0.13-0.11,0.18-0.26,0.13-0.44
			C127.28,441.2,127.2,440.93,127.12,440.65z"/>
	</g>
</g>
<g id="CENTRE_D_x27_INTÉRÊTS_1_">
	<g id="ENSEIGNEMENT" class="st1">
		<g class="st2">
			<path class="st3" d="M105.46,448.54c0-4.33,0-8.64,0-12.99c-0.1,0.05-0.18,0.08-0.25,0.12c-3.41,1.7-6.82,3.41-10.23,5.12
				c-0.16,0.08-0.29,0.09-0.46,0c-3.91-1.96-7.83-3.92-11.75-5.88c-0.08-0.04-0.15-0.08-0.25-0.14c0.1-0.06,0.18-0.1,0.25-0.14
				c3.92-1.96,7.83-3.92,11.75-5.88c0.16-0.08,0.28-0.09,0.44,0c3.94,1.97,7.87,3.94,11.81,5.91c0.17,0.08,0.22,0.18,0.22,0.36
				c-0.01,4.42,0,8.83,0,13.25c0,0.09,0,0.17,0,0.27C106.48,448.54,105.99,448.54,105.46,448.54z"/>
			<path class="st3" d="M87.09,437.94c0.11,0.05,0.19,0.08,0.26,0.12c2.39,1.2,4.79,2.39,7.17,3.59c0.16,0.08,0.28,0.08,0.44,0
				c2.39-1.2,4.78-2.4,7.17-3.59c0.08-0.04,0.15-0.07,0.26-0.12c0,0.11,0,0.18,0,0.26c0,2.1,0,4.19,0,6.29
				c0,0.18-0.05,0.26-0.21,0.34c-2.42,1.2-4.83,2.41-7.24,3.62c-0.15,0.08-0.27,0.07-0.42,0c-2.4-1.21-4.81-2.41-7.22-3.61
				c-0.16-0.08-0.23-0.16-0.23-0.36c0.01-2.1,0.01-4.19,0.01-6.29C87.09,438.12,87.09,438.05,87.09,437.94z"/>
		</g>
	</g>
	<g id="PROGRAMMATION_x28_INFORMATIQUE_x29_" class="st1">
		<g class="st2">
			<path class="st3" d="M118.01,409.46c-0.01,7.01-5.62,12.98-13.09,12.96c-6.99-0.02-12.85-5.67-12.87-12.78
				c-0.02-7.6,5.94-13.17,12.99-13.16C112.33,396.48,118.01,402.35,118.01,409.46z"/>
			<path class="st4" d="M105.04,400.54c2.11,0,4.22,0,6.33,0c0.65,0,0.96,0.3,0.96,0.95c0,3.42,0,6.83,0,10.25
				c0,0.63-0.3,0.93-0.92,0.93c-1.49,0-2.97,0-4.46,0c-0.22,0-0.3,0.05-0.29,0.28c0.02,0.41,0.02,0.83,0,1.25
				c-0.02,0.38,0.14,0.68,0.42,0.92c0.59,0.51,1.28,0.8,2.07,0.81c0.5,0,1-0.01,1.49,0c0.61,0.01,1,0.49,0.85,1.03
				c-0.09,0.31-0.35,0.53-0.67,0.57c-0.04,0-0.07,0.01-0.11,0.01c-3.77,0-7.54,0-11.32,0c-0.33,0-0.57-0.14-0.73-0.43
				c-0.24-0.46,0.01-1.02,0.52-1.15c0.15-0.04,0.29-0.03,0.44-0.04c0.62-0.02,1.25,0.07,1.87-0.05c0.59-0.12,1.13-0.37,1.57-0.8
				c0.25-0.24,0.39-0.53,0.38-0.89c-0.01-0.42-0.01-0.83,0-1.25c0.01-0.2-0.05-0.27-0.26-0.27c-1.49,0.01-2.98,0-4.48,0
				c-0.63,0-0.94-0.3-0.94-0.92c0-3.42,0-6.85,0-10.27c0-0.64,0.31-0.94,0.94-0.94C100.81,400.54,102.93,400.54,105.04,400.54z"/>
			<path class="st3" d="M104.89,402.45c1.75,0,3.5,0,5.25,0c0.31,0,0.31,0,0.31,0.31c0,2.44,0,4.88,0,7.32c0,0.31,0,0.31-0.31,0.31
				c-3.51,0-7.02,0-10.53,0c-0.3,0-0.3,0-0.3-0.3c0-2.45,0-4.9,0-7.35c0-0.3,0-0.3,0.3-0.3
				C101.37,402.45,103.13,402.45,104.89,402.45z"/>
			<path class="st4" d="M106.01,404.24c-0.02,0.05-0.03,0.09-0.05,0.14c-0.54,1.45-1.08,2.91-1.62,4.36
				c-0.07,0.18-0.14,0.2-0.31,0.14c-0.39-0.16-0.4-0.09-0.24-0.52c0.52-1.4,1.04-2.8,1.55-4.2c0.07-0.19,0.15-0.23,0.32-0.15
				c0.08,0.04,0.17,0.06,0.25,0.1C105.97,404.14,106.03,404.16,106.01,404.24z"/>
			<path class="st4" d="M108.85,406.48c0.03,0.17-0.04,0.26-0.18,0.32c-0.59,0.28-1.19,0.57-1.78,0.87
				c-0.12,0.06-0.19,0.05-0.24-0.08c-0.01-0.03-0.03-0.07-0.05-0.1c-0.13-0.27-0.13-0.27,0.13-0.39c0.37-0.18,0.74-0.35,1.1-0.53
				c0.05-0.02,0.13-0.04,0.13-0.11c0-0.07-0.08-0.08-0.13-0.1c-0.38-0.18-0.76-0.36-1.15-0.53c-0.17-0.07-0.19-0.16-0.1-0.3
				c0.02-0.04,0.04-0.08,0.06-0.12c0.05-0.15,0.12-0.19,0.28-0.11c0.57,0.29,1.14,0.56,1.72,0.84
				C108.8,406.21,108.9,406.31,108.85,406.48z"/>
			<path class="st4" d="M101.77,406.47c0.18,0.13,0.38,0.2,0.57,0.29c0.26,0.13,0.52,0.26,0.78,0.37c0.12,0.05,0.16,0.12,0.09,0.24
				c-0.01,0.01-0.01,0.03-0.02,0.04c-0.14,0.34-0.14,0.35-0.47,0.18c-0.53-0.26-1.06-0.53-1.6-0.79c-0.14-0.07-0.22-0.15-0.21-0.32
				c0-0.16,0.03-0.27,0.2-0.35c0.58-0.27,1.16-0.56,1.74-0.85c0.14-0.07,0.22-0.05,0.27,0.1c0.02,0.06,0.04,0.11,0.07,0.16
				c0.08,0.13,0.04,0.21-0.1,0.27c-0.38,0.17-0.76,0.34-1.13,0.52C101.89,406.38,101.81,406.39,101.77,406.47z"/>
		</g>
	</g>
	<g id="ENVIRONNEMENT" class="st1">
		<g class="st2">
			<path class="st3" d="M90.66,430.59c-0.05-0.1-0.07-0.14-0.08-0.17c-0.78-1.39-1.56-2.77-2.34-4.16
				c-0.08-0.15-0.19-0.17-0.34-0.17c-1.56,0-3.12,0-4.67,0c-0.06,0-0.13,0.01-0.25,0.02c0.59,0.38,1.12,0.73,1.68,1.09
				c-0.27,0.48-0.51,0.95-0.78,1.4c-0.45,0.77-0.38,1.53,0.02,2.28c0.29,0.55,0.6,1.09,0.91,1.64c0.47,0.84,0.95,1.68,1.43,2.54
				c0.15-0.08,0.28-0.16,0.41-0.22c-0.17-0.73,0.01-1.38,0.34-1.98c0.53-0.95,1.09-1.89,1.63-2.83c0.07-0.13,0.15-0.25,0.23-0.38
				C89.45,429.95,90.03,430.25,90.66,430.59z M104.12,431.27c-0.53,0.55-1.2,0.74-1.92,0.79c-0.97,0.06-1.93,0.1-2.9,0.14
				c-0.24,0.01-0.49,0-0.75,0c-0.06-0.65-0.12-1.3-0.18-1.96c-0.04,0.04-0.06,0.05-0.08,0.07c-0.76,1.43-1.52,2.86-2.27,4.29
				c-0.04,0.08-0.01,0.24,0.04,0.33c0.84,1.33,1.69,2.66,2.54,3.98c0.03,0.04,0.07,0.08,0.14,0.17c0-0.63,0-1.2,0-1.77
				c0-0.16,0.03-0.24,0.22-0.24c0.47-0.02,0.93-0.07,1.4-0.09c0.88-0.03,1.47-0.49,1.88-1.21c0.44-0.76,0.84-1.55,1.25-2.32
				c0.34-0.64,0.68-1.28,1.03-1.94C104.38,431.42,104.25,431.34,104.12,431.27z M94.16,424.03c0.1,0.01,0.12,0.02,0.14,0.02
				c1.61-0.01,3.22-0.02,4.83-0.04c0.09,0,0.22-0.09,0.27-0.18c0.56-0.99,1.11-1.98,1.66-2.97c0.24-0.43,0.47-0.86,0.71-1.28
				c-0.01-0.01-0.02-0.03-0.04-0.04c-0.57,0.3-1.13,0.6-1.71,0.9c-0.29-0.46-0.57-0.88-0.83-1.33c-0.45-0.78-1.15-1.11-2.02-1.12
				c-1.5-0.01-3.01,0-4.51,0.01c-0.09,0-0.18,0.01-0.36,0.02c0.07,0.2,0.09,0.44,0.19,0.47c0.65,0.23,1.1,0.69,1.45,1.25
				c0.48,0.76,0.93,1.54,1.39,2.31c0.17,0.28,0.34,0.57,0.52,0.87C95.29,423.29,94.75,423.64,94.16,424.03z M90.45,425.02
				c0.6-0.05,1.06-0.3,1.35-0.8c0.63-1.11,1.25-2.24,1.87-3.36c0.04-0.07,0.03-0.21-0.02-0.28c-0.39-0.57-0.86-1.04-1.46-1.39
				c-0.52-0.31-1.08-0.46-1.69-0.35c-0.68,0.13-1.24,0.5-1.63,1.04c-0.45,0.64-0.83,1.34-1.21,2.03c-0.4,0.74-0.15,1.61,0.57,2.04
				c0.5,0.29,1,0.58,1.52,0.84C89.98,424.9,90.22,424.95,90.45,425.02z M104.68,428.93c0.02-0.01,0.04-0.01,0.06-0.02
				c-0.12-0.45-0.17-0.93-0.38-1.33c-0.39-0.72-0.83-1.43-1.32-2.08c-0.42-0.56-1.27-0.65-1.87-0.28c-0.51,0.31-1.02,0.63-1.51,0.96
				c-0.68,0.46-0.88,1.35-0.44,2.05c0.68,1.09,1.38,2.17,2.07,3.24c0.04,0.07,0.17,0.13,0.25,0.12c0.65-0.08,1.28-0.25,1.85-0.58
				C104.18,430.56,104.66,429.89,104.68,428.93z M90.28,432.42c-0.55,0-1.09,0-1.64,0c-0.57,0-0.57,0-0.78,0.54
				c-0.27,0.7-0.43,1.42-0.29,2.17c0.21,1.12,0.99,1.68,2.03,1.93c0.92,0.23,1.86,0.15,2.78,0.05c0.73-0.08,1.22-0.75,1.23-1.49
				c0.01-0.55,0.01-1.11,0-1.66c-0.01-0.88-0.66-1.53-1.54-1.53C91.48,432.42,90.88,432.42,90.28,432.42z"/>
			<path class="st3" d="M90.66,430.59c-0.63-0.33-1.21-0.63-1.81-0.94c-0.08,0.13-0.16,0.25-0.23,0.38
				c-0.55,0.94-1.11,1.88-1.63,2.83c-0.33,0.6-0.51,1.25-0.34,1.98c-0.12,0.07-0.26,0.14-0.41,0.22c-0.48-0.86-0.96-1.7-1.43-2.54
				c-0.31-0.54-0.62-1.08-0.91-1.64c-0.4-0.75-0.47-1.51-0.02-2.28c0.27-0.45,0.51-0.92,0.78-1.4c-0.55-0.36-1.09-0.71-1.68-1.09
				c0.12-0.01,0.19-0.02,0.25-0.02c1.56,0,3.12,0,4.67,0c0.15,0,0.26,0.02,0.34,0.17c0.77,1.39,1.56,2.78,2.34,4.16
				C90.6,430.45,90.61,430.48,90.66,430.59z"/>
			<path class="st3" d="M104.12,431.27c0.13,0.07,0.25,0.14,0.4,0.22c-0.35,0.65-0.69,1.29-1.03,1.94
				c-0.41,0.78-0.81,1.56-1.25,2.32c-0.41,0.72-1.01,1.18-1.88,1.21c-0.47,0.01-0.93,0.07-1.4,0.09c-0.18,0.01-0.22,0.08-0.22,0.24
				c0.01,0.57,0,1.14,0,1.77c-0.07-0.08-0.11-0.12-0.14-0.17c-0.85-1.33-1.7-2.65-2.54-3.98c-0.05-0.09-0.08-0.24-0.04-0.33
				c0.75-1.43,1.51-2.86,2.27-4.29c0.01-0.02,0.03-0.03,0.08-0.07c0.06,0.67,0.12,1.31,0.18,1.96c0.26,0,0.51,0.01,0.75,0
				c0.97-0.04,1.94-0.08,2.9-0.14C102.92,432.02,103.59,431.82,104.12,431.27z"/>
			<path class="st3" d="M94.16,424.03c0.59-0.39,1.13-0.74,1.7-1.12c-0.18-0.3-0.35-0.58-0.52-0.87c-0.46-0.77-0.91-1.55-1.39-2.31
				c-0.35-0.56-0.81-1.01-1.45-1.25c-0.09-0.03-0.11-0.28-0.19-0.47c0.17-0.01,0.26-0.02,0.36-0.02c1.5,0,3.01-0.02,4.51-0.01
				c0.87,0,1.57,0.33,2.02,1.12c0.25,0.44,0.54,0.86,0.83,1.33c0.58-0.3,1.14-0.6,1.71-0.9c0.01,0.01,0.02,0.03,0.04,0.04
				c-0.24,0.43-0.47,0.86-0.71,1.28c-0.55,0.99-1.1,1.98-1.66,2.97c-0.05,0.09-0.18,0.18-0.27,0.18c-1.61,0.02-3.22,0.03-4.83,0.04
				C94.28,424.05,94.25,424.05,94.16,424.03z"/>
			<path class="st3" d="M90.45,425.02c-0.23-0.07-0.48-0.12-0.69-0.23c-0.52-0.26-1.02-0.55-1.52-0.84
				c-0.72-0.43-0.98-1.29-0.57-2.04c0.38-0.69,0.75-1.39,1.21-2.03c0.39-0.55,0.94-0.91,1.63-1.04c0.61-0.11,1.17,0.04,1.69,0.35
				c0.59,0.35,1.07,0.83,1.46,1.39c0.05,0.07,0.06,0.21,0.02,0.28c-0.62,1.13-1.23,2.25-1.87,3.36
				C91.51,424.72,91.05,424.97,90.45,425.02z"/>
			<path class="st3" d="M104.68,428.93c-0.01,0.96-0.49,1.62-1.29,2.09c-0.57,0.33-1.2,0.51-1.85,0.58
				c-0.08,0.01-0.2-0.05-0.25-0.12c-0.7-1.08-1.39-2.15-2.07-3.24c-0.44-0.7-0.24-1.59,0.44-2.05c0.5-0.33,1-0.65,1.51-0.96
				c0.6-0.37,1.46-0.27,1.87,0.28c0.49,0.66,0.94,1.36,1.32,2.08c0.21,0.4,0.26,0.88,0.38,1.33
				C104.72,428.92,104.7,428.93,104.68,428.93z"/>
			<path class="st3" d="M90.28,432.42c0.6,0,1.2,0,1.8,0c0.88,0.01,1.53,0.65,1.54,1.53c0.01,0.55,0.01,1.11,0,1.66
				c-0.01,0.75-0.51,1.42-1.23,1.49c-0.92,0.1-1.86,0.18-2.78-0.05c-1.04-0.26-1.81-0.82-2.03-1.93c-0.14-0.75,0.02-1.47,0.29-2.17
				c0.21-0.54,0.21-0.54,0.78-0.54C89.19,432.42,89.74,432.42,90.28,432.42z"/>
		</g>
	</g>
	<g id="SCOUTISME" class="st1">
		<g class="st2">
			<path class="st3" d="M88.03,386.14c0-0.61,0-1.2,0-1.8c1.1,0,2.2,0,3.31,0c0-2.19,0-4.36,0-6.55c-2.84,0-5.68,0-8.55,0
				c0,0.83,0,1.67,0,2.53c-0.81,0-1.59,0-2.38,0c0-2.42,0-4.83,0-7.26c0.78,0,1.56,0,2.37,0c0,0.84,0,1.68,0,2.53
				c2.87,0,5.71,0,8.57,0c0-2.17,0-4.35,0-6.54c-1.1,0-2.2,0-3.31,0c0-0.61,0-1.2,0-1.81c3.16,0,6.33,0,9.51,0c0,0.6,0,1.19,0,1.8
				c-1.1,0-2.2,0-3.31,0c0,2.19,0,4.36,0,6.55c2.84,0,5.68,0,8.55,0c0-0.83,0-1.67,0-2.53c0.81,0,1.59,0,2.38,0
				c0,2.42,0,4.83,0,7.26c-0.78,0-1.56,0-2.37,0c0-0.84,0-1.68,0-2.53c-2.87,0-5.71,0-8.57,0c0,2.17,0,4.35,0,6.54
				c1.1,0,2.2,0,3.31,0c0,0.61,0,1.2,0,1.81C94.37,386.14,91.21,386.14,88.03,386.14z"/>
		</g>
	</g>
	<g id="ASSAINISSEMENT" class="st1">
		<g class="st2">
			<path class="st3" d="M85.94,382.57c-0.46,0-0.9-0.01-1.34,0c-0.92,0.03-1.73,0.33-2.34,1.05c-0.48,0.56-0.63,1.24-0.62,1.96
				c0,1.39,0,2.77,0,4.16c0,0.29,0.01,0.58,0,0.87c0,0.15,0.05,0.2,0.2,0.19c0.17-0.01,0.34,0,0.51,0c0.28,0,0.28,0,0.28-0.29
				c0-1.66,0-3.32,0-4.98c0-1.03,0.53-1.68,1.5-1.9c0.2-0.04,0.41-0.06,0.61-0.06c4.4,0,8.81,0,13.21,0c0.07,0,0.13,0,0.2,0
				c0,0.04,0,0.06-0.01,0.06c-0.7,0.7-1.47,1.28-2.42,1.58c-0.61,0.19-1.23,0.16-1.85,0.17c-0.45,0.01-0.91,0-1.35,0.07
				c-1.32,0.23-2.2,1.15-2.3,2.48c-0.07,0.93-0.03,1.86-0.03,2.8c0,0.02,0.02,0.04,0.03,0.06c0.31,0,0.62,0,0.95,0
				c0-0.09,0-0.17,0-0.24c0-0.74,0-1.48,0-2.23c0-0.32,0.04-0.63,0.2-0.91c4.25,1.21,8.24-0.86,10.02-4.14
				c1.81-3.34,1.23-7.4-1.46-10.14c-2.62-2.67-6.71-3.31-10.07-1.56c-1.66,0.87-2.92,2.15-3.73,3.84
				C84.99,377.74,84.98,380.13,85.94,382.57z M91.82,388.66c0,0.29,0.01,0.54,0,0.79c-0.01,0.16,0.05,0.22,0.21,0.27
				c0.52,0.19,1.04,0.37,1.53,0.61c0.33,0.17,0.32,0.35,0.01,0.56c-0.14,0.09-0.29,0.18-0.45,0.24c-0.28,0.11-0.57,0.22-0.86,0.31
				c-1.39,0.4-2.81,0.55-4.25,0.62c-2.12,0.09-4.23,0.01-6.3-0.48c-0.54-0.13-1.06-0.34-1.58-0.53c-0.21-0.08-0.49-0.19-0.49-0.44
				c0-0.25,0.29-0.34,0.5-0.44c0.23-0.11,0.47-0.19,0.7-0.29c0.05-0.02,0.13-0.08,0.13-0.13c0.01-0.3,0.01-0.6,0.01-0.93
				c-0.71,0.22-1.38,0.44-1.91,0.94c-0.58,0.54-0.58,1.24,0.03,1.74c0.32,0.26,0.7,0.48,1.09,0.64c1.36,0.55,2.8,0.73,4.24,0.86
				c1.51,0.13,3.02,0.13,4.53,0c1.21-0.1,2.4-0.26,3.57-0.6c0.64-0.19,1.26-0.42,1.78-0.86c0.21-0.18,0.38-0.4,0.45-0.68
				c0.12-0.53-0.13-0.91-0.52-1.21C93.54,389.1,92.7,388.88,91.82,388.66z M86.44,394.74c1.71,0,3.2-0.1,4.68-0.3
				c0.3-0.04,0.49-0.27,0.45-0.56c-0.03-0.28-0.28-0.46-0.58-0.42c-0.61,0.07-1.22,0.15-1.83,0.19c-2.59,0.19-5.17,0.12-7.73-0.36
				c-1.16-0.22-2.3-0.52-3.35-1.09c-0.45-0.24-0.87-0.53-1.16-0.96c-0.27-0.41-0.28-0.85,0.01-1.25c0.17-0.22,0.37-0.43,0.59-0.6
				c0.52-0.4,1.12-0.65,1.73-0.87c0.3-0.11,0.43-0.36,0.35-0.63c-0.09-0.28-0.36-0.4-0.67-0.3c-0.2,0.07-0.4,0.15-0.59,0.23
				c-0.77,0.33-1.5,0.72-2.06,1.38c-0.71,0.84-0.75,1.9-0.06,2.75c0.22,0.27,0.48,0.52,0.77,0.72c1.03,0.74,2.21,1.12,3.42,1.41
				C82.46,394.57,84.55,394.71,86.44,394.74z M87.44,388.93c0,0.63,0,1.23,0,1.84c0.33,0,0.64,0,0.98,0c0-0.59,0-1.16,0-1.73
				c0-0.04-0.06-0.1-0.1-0.1C88.03,388.93,87.74,388.93,87.44,388.93z M85.08,388.95c-0.33,0-0.64,0-0.96,0c0,0.62,0,1.22,0,1.82
				c0.33,0,0.64,0,0.96,0C85.08,390.15,85.08,389.55,85.08,388.95z"/>
			<path class="st3" d="M85.94,382.57c-0.97-2.43-0.95-4.82,0.18-7.17c0.81-1.69,2.07-2.97,3.73-3.84
				c3.36-1.76,7.45-1.12,10.07,1.56c2.69,2.74,3.26,6.8,1.46,10.14c-1.78,3.28-5.77,5.35-10.02,4.14c-0.16,0.28-0.2,0.59-0.2,0.91
				c-0.01,0.74,0,1.48,0,2.23c0,0.08,0,0.15,0,0.24c-0.33,0-0.64,0-0.95,0c-0.01-0.02-0.03-0.04-0.03-0.06
				c0.01-0.93-0.04-1.87,0.03-2.8c0.1-1.33,0.98-2.25,2.3-2.48c0.44-0.08,0.9-0.06,1.35-0.07c0.62-0.01,1.24,0.02,1.85-0.17
				c0.96-0.3,1.73-0.89,2.42-1.58c0.01-0.01,0-0.03,0.01-0.06c-0.07,0-0.14,0-0.2,0c-4.4,0-8.81,0-13.21,0
				c-0.2,0-0.41,0.02-0.61,0.06c-0.97,0.22-1.5,0.87-1.5,1.9c-0.01,1.66,0,3.32,0,4.98c0,0.29,0,0.29-0.28,0.29
				c-0.17,0-0.34-0.01-0.51,0c-0.15,0.01-0.2-0.04-0.2-0.19c0.01-0.29,0-0.58,0-0.87c0-1.39,0-2.77,0-4.16
				c0-0.72,0.15-1.39,0.62-1.96c0.61-0.72,1.42-1.02,2.34-1.05C85.04,382.55,85.48,382.57,85.94,382.57z M95.67,381.58
				c0.67,0,1.32,0,1.97,0.01c0.04,0,0.11,0.09,0.11,0.15c0.01,0.27,0.01,0.53,0.01,0.83c0.31,0,0.59,0.01,0.87-0.01
				c0.04,0,0.11-0.1,0.11-0.15c0.01-0.21,0.01-0.42,0-0.64c-0.01-0.15,0.05-0.2,0.2-0.19c0.3,0.01,0.59,0,0.89,0
				c0.24,0,0.49,0,0.77,0c-0.04,0.12-0.06,0.21-0.1,0.29c-0.25,0.46-0.47,0.94-0.76,1.36c-1,1.44-2.36,2.39-4.05,2.86
				c-0.81,0.23-1.63,0.26-2.46,0.25c-0.34,0-0.67,0.05-1.01,0.22c0.08,0.03,0.13,0.05,0.18,0.05c0.88,0.16,1.76,0.18,2.64,0.05
				c4.35-0.68,7.23-4.97,6.21-9.25c-0.96-4.03-4.94-6.55-8.99-5.69c-4.71,0.99-7.33,6.19-5.34,10.57c0.14,0.31,0.19,0.33,0.56,0.24
				c-0.13-0.31-0.26-0.61-0.4-0.93c0.5,0,0.97,0,1.46,0c0,0.33,0,0.64,0,0.97c0.3,0,0.57,0,0.83,0c0.11,0,0.15-0.04,0.15-0.15
				c-0.01-0.19,0.01-0.38,0-0.57c-0.02-0.2,0.04-0.27,0.25-0.26c0.36,0.02,0.72,0,1.08,0c0.25,0,0.49,0,0.77,0c0,0.34,0,0.65,0,0.98
				c0.31,0,0.58,0.01,0.85-0.01c0.04,0,0.12-0.09,0.12-0.14c0.01-0.22,0.01-0.44,0-0.66c-0.01-0.14,0.05-0.18,0.18-0.18
				c0.58,0.01,1.16,0.01,1.74,0c0.14,0,0.18,0.05,0.18,0.19c-0.01,0.26,0,0.52,0,0.78c0.34,0,0.66,0,0.99,0
				C95.67,382.22,95.67,381.91,95.67,381.58z"/>
			<path class="st3" d="M91.82,388.66c0.88,0.22,1.71,0.44,2.41,0.99c0.39,0.3,0.64,0.68,0.52,1.21c-0.07,0.28-0.24,0.49-0.45,0.68
				c-0.52,0.44-1.14,0.67-1.78,0.86c-1.16,0.34-2.36,0.5-3.57,0.6c-1.51,0.12-3.02,0.12-4.53,0c-1.45-0.12-2.89-0.3-4.24-0.86
				c-0.39-0.16-0.76-0.38-1.09-0.64c-0.61-0.5-0.61-1.2-0.03-1.74c0.53-0.49,1.2-0.72,1.91-0.94c0,0.33,0.01,0.63-0.01,0.93
				c0,0.05-0.08,0.11-0.13,0.13c-0.23,0.1-0.48,0.18-0.7,0.29c-0.2,0.1-0.49,0.19-0.5,0.44c0,0.26,0.28,0.36,0.49,0.44
				c0.52,0.2,1.04,0.41,1.58,0.53c2.07,0.48,4.18,0.57,6.3,0.48c1.44-0.06,2.86-0.22,4.25-0.62c0.29-0.08,0.58-0.19,0.86-0.31
				c0.16-0.06,0.31-0.15,0.45-0.24c0.31-0.21,0.33-0.4-0.01-0.56c-0.49-0.24-1.01-0.43-1.53-0.61c-0.15-0.06-0.22-0.11-0.21-0.27
				C91.83,389.2,91.82,388.94,91.82,388.66z"/>
			<path class="st3" d="M86.44,394.74c-1.88-0.03-3.98-0.17-6.03-0.65c-1.21-0.29-2.4-0.67-3.42-1.41c-0.28-0.2-0.55-0.45-0.77-0.72
				c-0.69-0.86-0.66-1.92,0.06-2.75c0.56-0.65,1.29-1.05,2.06-1.38c0.19-0.08,0.39-0.16,0.59-0.23c0.31-0.11,0.58,0.02,0.67,0.3
				c0.09,0.27-0.05,0.52-0.35,0.63c-0.61,0.23-1.21,0.47-1.73,0.87c-0.22,0.17-0.43,0.37-0.59,0.6c-0.3,0.4-0.29,0.83-0.01,1.25
				c0.29,0.44,0.71,0.72,1.16,0.96c1.05,0.56,2.19,0.87,3.35,1.09c2.56,0.48,5.14,0.54,7.73,0.36c0.61-0.04,1.22-0.12,1.83-0.19
				c0.3-0.03,0.55,0.14,0.58,0.42c0.03,0.29-0.15,0.52-0.45,0.56C89.64,394.64,88.15,394.74,86.44,394.74z"/>
			<path class="st3" d="M87.44,388.93c0.3,0,0.59,0,0.88,0c0.03,0,0.1,0.07,0.1,0.1c0.01,0.57,0,1.14,0,1.73c-0.34,0-0.65,0-0.98,0
				C87.44,390.16,87.44,389.56,87.44,388.93z"/>
			<path class="st3" d="M85.08,388.95c0,0.61,0,1.2,0,1.82c-0.31,0-0.63,0-0.96,0c0-0.6,0-1.2,0-1.82
				C84.44,388.95,84.75,388.95,85.08,388.95z"/>
			<path class="st5" d="M95.67,381.58c0,0.33,0,0.64,0,0.96c-0.34,0-0.65,0-0.99,0c0-0.26-0.01-0.52,0-0.78
				c0-0.13-0.03-0.19-0.18-0.19c-0.58,0.01-1.16,0.01-1.74,0c-0.14,0-0.19,0.04-0.18,0.18c0.01,0.22,0.01,0.44,0,0.66
				c0,0.05-0.08,0.14-0.12,0.14c-0.27,0.01-0.55,0.01-0.85,0.01c0-0.33,0-0.64,0-0.98c-0.28,0-0.52,0-0.77,0
				c-0.36,0-0.72,0.01-1.08,0c-0.21-0.01-0.27,0.07-0.25,0.26c0.02,0.19,0,0.38,0,0.57c0,0.11-0.03,0.15-0.15,0.15
				c-0.27,0-0.54,0-0.83,0c0-0.33,0-0.64,0-0.97c-0.49,0-0.96,0-1.46,0c0.14,0.32,0.27,0.63,0.4,0.93
				c-0.37,0.09-0.42,0.07-0.56-0.24c-2-4.38,0.62-9.58,5.34-10.57c4.05-0.85,8.03,1.67,8.99,5.69c1.02,4.28-1.86,8.57-6.21,9.25
				c-0.88,0.14-1.76,0.12-2.64-0.05c-0.05-0.01-0.09-0.03-0.18-0.05c0.34-0.17,0.67-0.23,1.01-0.22c0.83,0.01,1.65-0.02,2.46-0.25
				c1.69-0.47,3.05-1.42,4.05-2.86c0.29-0.43,0.51-0.9,0.76-1.36c0.04-0.08,0.06-0.17,0.1-0.29c-0.28,0-0.52,0-0.77,0
				c-0.3,0-0.59,0.01-0.89,0c-0.14,0-0.2,0.04-0.2,0.19c0.01,0.21,0.01,0.42,0,0.64c0,0.05-0.07,0.15-0.11,0.15
				c-0.28,0.01-0.56,0.01-0.87,0.01c0-0.29,0.01-0.56-0.01-0.83c0-0.05-0.07-0.15-0.11-0.15C96.99,381.58,96.35,381.58,95.67,381.58
				z M94.67,374.43c0-0.82,0-1.61,0-2.41c-0.66-0.1-1.31-0.07-1.95,0.04c-0.05,0.01-0.12,0.11-0.12,0.17
				c-0.01,0.68,0,1.36-0.01,2.03c0,0.13,0.04,0.17,0.17,0.17c0.37-0.01,0.75,0,1.12,0C94.14,374.43,94.4,374.43,94.67,374.43z
				 M100.99,378.5c-0.72,0-1.42,0-2.12,0.01c-0.04,0-0.12,0.09-0.12,0.14c-0.01,0.6,0,1.2-0.01,1.8c0,0.1,0.03,0.16,0.14,0.15
				c0.62,0,1.24,0,1.86-0.01c0.05,0,0.14-0.08,0.15-0.13C101.02,379.83,101.06,379.18,100.99,378.5z M91.6,379.55
				c0-0.3,0-0.59,0-0.89c0-0.11-0.02-0.17-0.15-0.17c-0.6,0-1.2,0-1.8,0c-0.11,0-0.15,0.04-0.15,0.15c0,0.6,0,1.2,0,1.8
				c0,0.12,0.04,0.16,0.16,0.16c0.59,0,1.19-0.01,1.78,0c0.14,0,0.16-0.06,0.16-0.18C91.6,380.13,91.6,379.84,91.6,379.55z
				 M95.68,380.58c0.7,0,1.39,0,2.07,0c0-0.7,0-1.38,0-2.07c-0.69,0-1.37,0-2.07,0C95.68,379.21,95.68,379.89,95.68,380.58z
				 M94.67,378.52c-0.04-0.01-0.07-0.02-0.09-0.02c-0.61,0-1.23,0-1.84,0c-0.15,0-0.15,0.08-0.15,0.19c0,0.58,0,1.16,0,1.73
				c0,0.05,0.01,0.11,0.02,0.16c0.7,0,1.38,0,2.06,0C94.67,379.88,94.67,379.2,94.67,378.52z M91.59,377.51c0-0.7,0-1.38,0-2.06
				c-0.03-0.01-0.05-0.02-0.07-0.02c-0.62,0-1.24,0-1.86-0.01c-0.13,0-0.15,0.07-0.14,0.17c0,0.46,0,0.92,0,1.38
				c0,0.17,0,0.35,0,0.53C90.21,377.51,90.89,377.51,91.59,377.51z M95.68,377.5c0.7,0,1.38,0,2.08,0c0-0.66,0-1.3-0.01-1.94
				c0-0.04-0.09-0.12-0.14-0.13c-0.22-0.01-0.44-0.01-0.66-0.01c-0.42,0-0.84,0-1.28,0C95.68,376.13,95.68,376.81,95.68,377.5z
				 M92.59,377.5c0.71,0,1.39,0,2.08,0c0-0.7,0-1.38,0-2.08c-0.66,0-1.31,0-1.96,0c-0.04,0-0.11,0.07-0.11,0.11
				C92.59,376.18,92.59,376.83,92.59,377.5z M88.51,378.5c-0.59,0-1.15,0-1.71,0.01c-0.05,0-0.13,0.11-0.13,0.16
				c0.02,0.59,0.06,1.18,0.09,1.77c0.01,0.14,0.09,0.17,0.21,0.17c0.4-0.01,0.79,0,1.19,0c0.12,0,0.23,0,0.35,0
				C88.51,379.88,88.51,379.21,88.51,378.5z M95.68,372.21c0,0.75,0,1.48,0,2.22c0.67,0,1.32,0,1.98-0.01c0.04,0,0.1-0.09,0.1-0.14
				c0.01-0.35,0.01-0.69,0-1.04c0-0.06-0.04-0.14-0.09-0.17C97.06,372.69,96.41,372.4,95.68,372.21z M100.8,377.51
				c0.01-0.04,0.02-0.06,0.01-0.07c-0.16-0.69-0.42-1.33-0.79-1.93c-0.03-0.04-0.1-0.09-0.15-0.09c-0.33-0.01-0.66-0.01-1,0
				c-0.05,0-0.13,0.09-0.13,0.13c-0.01,0.61-0.01,1.21,0,1.82c0,0.04,0.07,0.13,0.11,0.13C99.51,377.52,100.15,377.51,100.8,377.51z
				 M91.59,372.33c-0.75,0.25-1.42,0.59-2.02,1.05c-0.03,0.02-0.06,0.07-0.06,0.11c0,0.31,0,0.62,0,0.94c0.71,0,1.39,0,2.08,0
				C91.59,373.73,91.59,373.05,91.59,372.33z M88.51,375.42c-0.23,0-0.44-0.01-0.66,0.01c-0.08,0.01-0.19,0.06-0.23,0.13
				c-0.2,0.41-0.4,0.82-0.58,1.25c-0.09,0.22-0.14,0.45-0.21,0.7c0.58,0,1.12,0,1.67,0C88.51,376.81,88.51,376.13,88.51,375.42z"/>
			<path class="st3" d="M94.67,374.43c-0.27,0-0.53,0-0.79,0c-0.37,0-0.75,0-1.12,0c-0.13,0-0.17-0.04-0.17-0.17
				c0-0.68,0-1.36,0.01-2.03c0-0.06,0.07-0.16,0.12-0.17c0.64-0.1,1.29-0.13,1.95-0.04C94.67,372.82,94.67,373.61,94.67,374.43z"/>
			<path class="st3" d="M100.99,378.5c0.07,0.68,0.03,1.33-0.09,1.97c-0.01,0.05-0.1,0.13-0.15,0.13c-0.62,0.01-1.24,0-1.86,0.01
				c-0.12,0-0.14-0.05-0.14-0.15c0-0.6,0-1.2,0.01-1.8c0-0.05,0.08-0.14,0.12-0.14C99.57,378.5,100.27,378.5,100.99,378.5z"/>
			<path class="st3" d="M91.6,379.55c0,0.29,0,0.58,0,0.87c0,0.12-0.02,0.18-0.16,0.18c-0.59-0.01-1.19,0-1.78,0
				c-0.12,0-0.16-0.04-0.16-0.16c0-0.6,0-1.2,0-1.8c0-0.11,0.04-0.15,0.15-0.15c0.6,0,1.2,0,1.8,0c0.13,0,0.15,0.06,0.15,0.17
				C91.6,378.96,91.6,379.26,91.6,379.55z"/>
			<path class="st3" d="M95.68,380.58c0-0.7,0-1.38,0-2.07c0.69,0,1.37,0,2.07,0c0,0.69,0,1.37,0,2.07
				C97.07,380.58,96.39,380.58,95.68,380.58z"/>
			<path class="st3" d="M94.67,378.52c0,0.69,0,1.37,0,2.06c-0.68,0-1.36,0-2.06,0c-0.01-0.05-0.02-0.11-0.02-0.16
				c0-0.58,0-1.16,0-1.73c0-0.11,0-0.19,0.15-0.19c0.61,0.01,1.23,0,1.84,0C94.6,378.5,94.63,378.51,94.67,378.52z"/>
			<path class="st3" d="M91.59,377.51c-0.7,0-1.38,0-2.08,0c0-0.18,0-0.36,0-0.53c0-0.46,0-0.92,0-1.38c0-0.1,0.01-0.18,0.14-0.17
				c0.62,0.01,1.24,0,1.86,0.01c0.02,0,0.04,0.01,0.07,0.02C91.59,376.13,91.59,376.81,91.59,377.51z"/>
			<path class="st3" d="M95.68,377.5c0-0.69,0-1.37,0-2.08c0.44,0,0.86,0,1.28,0c0.22,0,0.44-0.01,0.66,0.01
				c0.05,0,0.14,0.08,0.14,0.13c0.01,0.64,0.01,1.28,0.01,1.94C97.07,377.5,96.39,377.5,95.68,377.5z"/>
			<path class="st3" d="M92.59,377.5c0-0.67,0-1.32,0-1.96c0-0.04,0.07-0.11,0.11-0.11c0.65-0.01,1.3,0,1.96,0c0,0.7,0,1.38,0,2.08
				C93.98,377.5,93.3,377.5,92.59,377.5z"/>
			<path class="st3" d="M88.51,378.5c0,0.71,0,1.39,0,2.1c-0.12,0-0.24,0-0.35,0c-0.4,0-0.79,0-1.19,0c-0.12,0-0.2-0.02-0.21-0.17
				c-0.03-0.59-0.07-1.18-0.09-1.77c0-0.05,0.08-0.16,0.13-0.16C87.36,378.49,87.93,378.5,88.51,378.5z"/>
			<path class="st3" d="M95.68,372.21c0.72,0.19,1.38,0.48,1.99,0.87c0.05,0.03,0.09,0.11,0.09,0.17c0.01,0.35,0.01,0.69,0,1.04
				c0,0.05-0.06,0.14-0.1,0.14c-0.65,0.01-1.31,0.01-1.98,0.01C95.68,373.69,95.68,372.96,95.68,372.21z"/>
			<path class="st3" d="M100.8,377.51c-0.65,0-1.29,0-1.93-0.01c-0.04,0-0.11-0.08-0.11-0.13c-0.01-0.61-0.01-1.21,0-1.82
				c0-0.05,0.08-0.13,0.13-0.13c0.33-0.01,0.66-0.01,1,0c0.05,0,0.12,0.04,0.15,0.09c0.36,0.6,0.63,1.24,0.79,1.93
				C100.82,377.46,100.81,377.47,100.8,377.51z"/>
			<path class="st3" d="M91.59,372.33c0,0.72,0,1.4,0,2.09c-0.69,0-1.37,0-2.08,0c0-0.32,0-0.63,0-0.94c0-0.04,0.03-0.08,0.06-0.11
				C90.17,372.92,90.84,372.58,91.59,372.33z"/>
			<path class="st3" d="M88.51,375.42c0,0.71,0,1.39,0,2.08c-0.55,0-1.09,0-1.67,0c0.07-0.24,0.12-0.48,0.21-0.7
				c0.18-0.42,0.37-0.84,0.58-1.25c0.03-0.07,0.15-0.13,0.23-0.13C88.06,375.41,88.28,375.42,88.51,375.42z"/>
		</g>
	</g>
	<g id="LECTURE" class="st1">
		<g class="st2">
			<path class="st3" d="M123.83,371.35c0-0.06,0-0.1,0-0.15c0-0.78,0-1.57,0-2.35c0-0.28,0.15-0.39,0.54-0.39c2.8,0,5.6,0,8.4,0
				c0.99,0,1.73,0.31,2.29,0.89c0.03,0.03,0.06,0.06,0.07,0.08c0.21-0.17,0.4-0.35,0.64-0.5c0.47-0.31,1.05-0.46,1.69-0.46
				c2.83,0,5.65,0,8.48,0c0.37,0,0.53,0.12,0.53,0.38c0,0.79,0,1.58,0,2.37c0,0.04,0,0.09,0,0.15c0.07,0,0.13,0,0.19,0
				c0.55,0,1.1,0,1.65,0c0.38,0,0.54,0.11,0.54,0.38c0,4.03,0,8.06,0,12.1c0,0.26-0.16,0.38-0.53,0.38c-8.78,0-17.55,0-26.33,0
				c-0.37,0-0.53-0.12-0.53-0.38c0-4.03,0-8.06,0-12.1c0-0.27,0.16-0.39,0.54-0.39C122.6,371.35,123.2,371.35,123.83,371.35z
				 M134.72,381.62c0-0.07,0-0.1,0-0.14c0-3.6,0-7.21,0-10.81c0-0.15-0.02-0.3-0.07-0.45c-0.16-0.55-0.8-1.16-1.95-1.15
				c-2.59,0.02-5.18,0.01-7.77,0.01c-0.07,0-0.14,0-0.22,0c0,3.99,0,7.97,0,11.96c0.09,0,0.16,0,0.23,0c2.62,0,5.25,0,7.87,0
				c0.21,0,0.43,0.02,0.64,0.05C133.93,381.17,134.33,381.35,134.72,381.62z M145.6,369.09c-0.06,0-0.1-0.01-0.14-0.01
				c-2.69,0-5.38,0-8.07,0c-0.38,0-0.71,0.09-1,0.26c-0.57,0.33-0.81,0.78-0.81,1.29c0,3.62,0,7.24,0,10.86
				c0,0.03,0.01,0.07,0.01,0.11c0.03-0.01,0.05-0.02,0.06-0.03c0.54-0.37,1.18-0.53,1.92-0.53c2.6,0.01,5.19,0,7.79,0
				c0.24,0,0.24,0,0.24-0.18c0-3.87,0-7.74,0-11.61C145.6,369.21,145.6,369.15,145.6,369.09z M147.96,383.58c0-3.87,0-7.73,0-11.59
				c-0.5,0-0.99,0-1.5,0c0,0.06,0,0.11,0,0.16c0,3.03,0,6.06,0,9.09c0,0.33-0.13,0.43-0.58,0.43c-2.79,0-5.59,0-8.38,0
				c-0.2,0-0.41,0.02-0.6,0.06c-0.48,0.11-0.81,0.35-1.04,0.66c-0.15,0.2-0.37,0.33-0.7,0.33c-0.34,0-0.57-0.13-0.73-0.34
				c-0.3-0.4-0.75-0.66-1.39-0.71c-0.19-0.02-0.38-0.01-0.58-0.01c-2.7,0-5.41,0-8.11,0c-0.15,0-0.31,0-0.4-0.1
				c-0.07-0.09-0.12-0.19-0.12-0.29c-0.01-3.04,0-6.09,0-9.13c0-0.05,0-0.1,0-0.15c-0.51,0-1.01,0-1.5,0c0,3.87,0,7.73,0,11.59
				C130.88,383.58,139.41,383.58,147.96,383.58z"/>
			<path class="st3" d="M129.7,377.91c0.76,0,1.52,0,2.29,0c0.21,0,0.32-0.05,0.32-0.16c0-0.1-0.11-0.16-0.32-0.16
				c-0.01,0-0.01,0-0.02,0c-1.51,0-3.02,0-4.52,0c-0.06,0-0.11,0-0.17,0.01c-0.11,0.02-0.2,0.08-0.17,0.16
				c0.02,0.06,0.11,0.11,0.19,0.15c0.03,0.02,0.1,0,0.15,0C128.2,377.91,128.95,377.91,129.7,377.91z M129.7,374.55
				c-0.43,0-0.87,0-1.3,0c-0.35,0-0.7,0-1.05,0c-0.14,0-0.23,0.05-0.24,0.15c-0.01,0.1,0.09,0.15,0.22,0.16c0.04,0,0.08,0,0.12,0
				c1.5,0,3,0,4.51,0c0.06,0,0.13,0,0.18-0.01c0.13-0.02,0.2-0.11,0.15-0.2c-0.05-0.09-0.15-0.11-0.27-0.11
				C131.25,374.55,130.47,374.55,129.7,374.55z M129.72,371.82c0.75,0,1.49,0,2.24,0c0.06,0,0.14,0.01,0.18-0.01
				c0.07-0.04,0.16-0.1,0.16-0.15c0-0.05-0.1-0.1-0.16-0.14c-0.03-0.02-0.09-0.01-0.13-0.01c-1.53,0-3.05,0-4.58,0
				c-0.05,0-0.12-0.01-0.15,0.01c-0.07,0.04-0.15,0.1-0.15,0.15c0,0.05,0.08,0.11,0.15,0.14c0.04,0.02,0.12,0.01,0.18,0.01
				C128.2,371.82,128.96,371.82,129.72,371.82z"/>
			<path class="st3" d="M129.7,377.91c-0.75,0-1.5,0-2.25,0c-0.05,0-0.12,0.01-0.15,0c-0.07-0.04-0.17-0.09-0.19-0.15
				c-0.03-0.08,0.05-0.14,0.17-0.16c0.05-0.01,0.11-0.01,0.17-0.01c1.51,0,3.02,0,4.52,0c0.01,0,0.01,0,0.02,0
				c0.21,0,0.32,0.06,0.32,0.16c0,0.1-0.11,0.16-0.32,0.16C131.23,377.91,130.47,377.91,129.7,377.91z"/>
			<path class="st3" d="M129.7,374.55c0.77,0,1.55,0,2.32,0c0.12,0,0.23,0.02,0.27,0.11c0.04,0.08-0.02,0.17-0.15,0.2
				c-0.06,0.01-0.12,0.01-0.18,0.01c-1.5,0-3,0-4.51,0c-0.04,0-0.08,0-0.12,0c-0.14-0.01-0.23-0.06-0.22-0.16
				c0.01-0.1,0.1-0.15,0.24-0.15c0.35,0,0.7,0,1.05,0C128.83,374.55,129.27,374.55,129.7,374.55z"/>
			<path class="st3" d="M129.72,371.82c-0.76,0-1.52,0-2.27,0c-0.06,0-0.14,0.01-0.18-0.01c-0.07-0.03-0.15-0.09-0.15-0.14
				c0-0.05,0.09-0.11,0.15-0.15c0.03-0.02,0.1-0.01,0.15-0.01c1.53,0,3.05,0,4.58,0c0.05,0,0.11-0.01,0.13,0.01
				c0.07,0.04,0.16,0.09,0.16,0.14c0,0.05-0.09,0.11-0.16,0.15c-0.04,0.02-0.12,0.01-0.18,0.01
				C131.21,371.82,130.47,371.82,129.72,371.82z"/>
			<path class="st3" d="M140.58,374.87c-0.75,0-1.5,0-2.25,0c-0.06,0-0.13,0.01-0.16-0.01c-0.07-0.04-0.17-0.1-0.16-0.16
				c0-0.05,0.11-0.1,0.18-0.15c0.02-0.01,0.08,0,0.12,0c1.52,0,3.05,0,4.57,0c0.04,0,0.08,0,0.12,0c0.12,0.01,0.19,0.06,0.19,0.14
				c0.01,0.09-0.06,0.15-0.18,0.16c-0.05,0.01-0.11,0.01-0.17,0.01C142.08,374.87,141.33,374.87,140.58,374.87z"/>
			<path class="st3" d="M140.59,377.91c-0.76,0-1.51,0-2.27,0c-0.05,0-0.09,0-0.14,0c-0.12-0.01-0.21-0.07-0.19-0.14
				c0.01-0.06,0.1-0.12,0.17-0.16c0.03-0.02,0.11-0.01,0.16-0.01c1.51,0,3.02,0,4.52,0c0.06,0,0.11,0,0.17,0.01
				c0.11,0.02,0.17,0.08,0.17,0.16c-0.01,0.08-0.08,0.13-0.19,0.15c-0.04,0-0.09,0-0.14,0C142.1,377.91,141.35,377.91,140.59,377.91
				z"/>
			<path class="st3" d="M140.6,371.51c0.75,0,1.5,0,2.26,0c0.05,0,0.12-0.01,0.15,0.01c0.07,0.04,0.16,0.08,0.18,0.14
				c0.03,0.08-0.04,0.14-0.16,0.16c-0.06,0.01-0.12,0.01-0.19,0.01c-1.5,0-3,0-4.49,0c-0.25,0-0.35-0.05-0.35-0.16
				c0-0.11,0.1-0.15,0.36-0.15C139.09,371.51,139.85,371.51,140.6,371.51z"/>
		</g>
	</g>
	<g id="CENTRE_D_x27_INTÉRÊTS" class="st1">
		<g class="st2">
			<path class="st3" d="M140.66,427.26c10.02,0.04,18.08,8.38,18.05,18.67c-0.03,10.33-8.12,18.65-18.1,18.62
				c-10.01-0.03-18.08-8.38-18.05-18.67C122.59,435.57,130.7,427.22,140.66,427.26z M140.63,440.06c-0.13-0.14-0.21-0.23-0.3-0.33
				c-2.06-2.08-5.23-2.17-7.23-0.2c-1.55,1.52-1.94,3.9-1.01,6.14c0.55,1.32,1.36,2.46,2.33,3.46c1.63,1.68,3.31,3.29,4.98,4.93
				c0.4,0.39,0.81,0.76,1.2,1.13c0.07-0.03,0.1-0.03,0.12-0.05c2.08-2.04,4.19-4.04,6.22-6.13c1.1-1.13,2.02-2.45,2.47-4.02
				c0.57-1.97,0.29-3.8-1.12-5.31c-1.37-1.47-3.08-1.87-4.98-1.37C142.26,438.59,141.39,439.2,140.63,440.06z"/>
		</g>
	</g>
</g>
<g id="COMPÉTENCES" class="st1">
	<g class="st2">
		<path class="st3" d="M139.32,415c-10.02,0.03-18.18-7.97-18.14-17.62c0.03-9.45,7.92-17.56,18.24-17.53
			c10.1,0.03,18.17,7.93,18.11,17.69C157.46,407.36,149.19,415.04,139.32,415z M137.6,395.28c0.01,0,0.02,0,0.02,0
			c0-0.32-0.01-0.63,0-0.95c0.01-0.16-0.05-0.22-0.21-0.24c-0.65-0.06-1.3-0.12-1.95-0.21c-0.29-0.04-0.39,0.07-0.43,0.33
			c-0.09,0.5-0.22,0.99-0.31,1.5c-0.05,0.3-0.16,0.48-0.51,0.54c-0.27,0.04-0.53,0.16-0.79,0.27c-0.22,0.09-0.39,0.06-0.56-0.11
			c-0.41-0.42-0.85-0.81-1.26-1.23c-0.17-0.18-0.31-0.19-0.5-0.03c-0.44,0.36-0.87,0.72-1.33,1.06c-0.25,0.19-0.3,0.34-0.1,0.61
			c0.33,0.44,0.61,0.91,0.93,1.36c0.13,0.18,0.13,0.34,0.02,0.53c-0.16,0.26-0.31,0.53-0.43,0.82c-0.09,0.21-0.21,0.3-0.45,0.29
			c-0.65-0.02-1.31,0.02-1.96-0.04c-0.15-0.01-0.25,0.01-0.27,0.18c-0.07,0.65-0.14,1.3-0.22,1.95c-0.03,0.25,0.1,0.34,0.33,0.38
			c0.6,0.11,1.19,0.24,1.79,0.34c0.22,0.04,0.32,0.14,0.37,0.34c0.07,0.3,0.15,0.59,0.26,0.88c0.08,0.23,0.03,0.38-0.15,0.54
			c-0.43,0.4-0.84,0.82-1.27,1.22c-0.16,0.15-0.2,0.27-0.04,0.46c0.41,0.46,0.81,0.94,1.2,1.41c0.13,0.16,0.25,0.17,0.41,0.06
			c0.41-0.26,0.85-0.49,1.24-0.77c0.4-0.29,0.76-0.4,1.19-0.05c0.13,0.11,0.3,0.17,0.47,0.23c0.24,0.09,0.33,0.25,0.32,0.5
			c-0.01,0.6,0,1.2,0,1.8c0,0.17,0.02,0.31,0.25,0.33c0.59,0.04,1.19,0.08,1.78,0.14c0.33,0.03,0.49-0.07,0.54-0.4
			c0.09-0.54,0.23-1.06,0.33-1.6c0.04-0.19,0.13-0.29,0.33-0.34c0.33-0.07,0.66-0.15,0.98-0.26c0.25-0.08,0.42-0.03,0.59,0.15
			c0.39,0.41,0.8,0.79,1.18,1.21c0.17,0.19,0.3,0.2,0.5,0.04c0.48-0.38,0.96-0.76,1.45-1.12c0.22-0.16,0.21-0.3,0.06-0.51
			c-0.35-0.48-0.67-0.98-1.02-1.46c-0.13-0.18-0.15-0.34,0.01-0.52c0.2-0.24,0.34-0.51,0.47-0.79c0.1-0.23,0.26-0.32,0.52-0.31
			c0.57,0.01,1.15,0,1.72,0.01c0.26,0,0.36-0.08,0.4-0.34c0.08-0.56,0.07-1.13,0.24-1.67c0.07-0.23-0.04-0.35-0.29-0.39
			c-0.63-0.11-1.26-0.25-1.89-0.36c-0.2-0.04-0.31-0.12-0.33-0.33c-0.03-0.34-0.12-0.67-0.27-0.98c-0.1-0.21-0.05-0.36,0.11-0.51
			c0.43-0.4,0.84-0.82,1.27-1.22c0.18-0.16,0.21-0.3,0.05-0.49c-0.4-0.45-0.8-0.91-1.19-1.38c-0.14-0.17-0.26-0.18-0.44-0.05
			c-0.5,0.34-1.01,0.66-1.5,1c-0.19,0.14-0.35,0.14-0.53,0c-0.26-0.19-0.55-0.34-0.86-0.45c-0.24-0.08-0.31-0.23-0.3-0.47
			C137.61,395.86,137.6,395.57,137.6,395.28z M136.01,387.99c-0.91-0.01-0.9,0-1,0.89c-0.1,0.87-0.17,0.78,0.74,0.91
			c0.62,0.09,1,0.29,1.09,0.93c0.03,0.22,0.02,0.36-0.14,0.51c-0.27,0.25-0.53,0.51-0.8,0.76c-0.13,0.12-0.16,0.23-0.02,0.37
			c0.25,0.27,0.49,0.55,0.72,0.84c0.16,0.2,0.3,0.2,0.5,0.06c0.29-0.2,0.59-0.37,0.88-0.55c0.13-0.08,0.26-0.14,0.43-0.07
			c0.76,0.29,0.83,0.38,0.83,1.15c0,0.03,0,0.07,0,0.1c0,0.8,0,0.8,0.8,0.89c1.04,0.12,0.85,0.08,1.03-0.72
			c0.18-0.78,0.17-0.77,0.96-1c0.25-0.07,0.42-0.02,0.59,0.16c0.22,0.24,0.47,0.47,0.71,0.71c0.13,0.13,0.26,0.17,0.42,0.04
			c0.31-0.24,0.62-0.48,0.93-0.72c0.15-0.11,0.15-0.23,0.05-0.37c-0.23-0.32-0.44-0.64-0.66-0.96c-0.06-0.09-0.13-0.18-0.09-0.31
			c0.19-0.6,0.54-0.85,1.17-0.85c1.01,0,1.01,0,1.11-0.96c0.07-0.67,0.08-0.7-0.64-0.8c-0.64-0.08-1.11-0.26-1.14-0.98
			c0-0.02-0.01-0.04-0.02-0.06c-0.09-0.17-0.04-0.29,0.09-0.42c0.29-0.27,0.56-0.54,0.85-0.81c0.12-0.11,0.14-0.21,0.02-0.35
			c-0.26-0.29-0.52-0.58-0.76-0.89c-0.13-0.16-0.26-0.16-0.42-0.05c-0.25,0.17-0.51,0.32-0.75,0.51c-0.27,0.22-0.48,0.19-0.8,0.05
			c-0.54-0.23-0.65-0.52-0.61-1.07c0.07-0.98,0.19-0.88-0.81-0.97c-0.03,0-0.07-0.01-0.1-0.02c-0.78-0.11-0.83-0.12-0.92,0.64
			c-0.08,0.63-0.32,1.01-1,1.12c-0.21,0.03-0.35,0.03-0.49-0.12c-0.26-0.26-0.53-0.51-0.79-0.77c-0.13-0.13-0.25-0.14-0.39-0.02
			c-0.28,0.22-0.55,0.45-0.84,0.66c-0.21,0.16-0.23,0.31-0.08,0.52c0.2,0.28,0.39,0.56,0.58,0.85c0.07,0.11,0.11,0.21,0.06,0.35
			c-0.29,0.78-0.35,0.83-1.22,0.82C136.04,387.99,136.03,387.99,136.01,387.99z M149.33,396.83c0-0.08-0.01-0.16,0-0.24
			c0.05-0.35-0.13-0.45-0.46-0.47c-0.83-0.05-0.82-0.06-1.01,0.72c-0.02,0.08-0.04,0.15-0.06,0.23c-0.03,0.11-0.09,0.17-0.2,0.22
			c-0.59,0.27-0.62,0.26-1.09-0.18c-0.11-0.1-0.21-0.21-0.32-0.31c-0.07-0.06-0.16-0.15-0.24-0.09c-0.3,0.22-0.64,0.41-0.85,0.69
			c-0.14,0.19,0.19,0.39,0.3,0.6c0.06,0.11,0.14,0.21,0.21,0.31c0.05,0.08,0.07,0.16,0.04,0.26c-0.18,0.58-0.39,0.72-1.02,0.66
			c-0.62-0.06-0.62-0.06-0.71,0.55c-0.1,0.69-0.1,0.7,0.61,0.82c0.39,0.06,0.67,0.17,0.75,0.61c0.05,0.26,0.03,0.43-0.17,0.6
			c-0.16,0.13-0.29,0.29-0.45,0.43c-0.16,0.14-0.16,0.27-0.02,0.43c0.61,0.73,0.6,0.73,1.43,0.24c0.14-0.08,0.27-0.17,0.45-0.11
			c0.55,0.18,0.64,0.29,0.64,0.85c0,0.16,0,0.32,0,0.47c0,0.1,0.01,0.23,0.14,0.25c0.34,0.06,0.71,0.18,1.03,0.05
			c0.25-0.1,0.16-0.42,0.24-0.64c0.01-0.04,0.03-0.09,0.03-0.13c-0.01-0.42,0.35-0.41,0.62-0.52c0.25-0.1,0.41-0.01,0.58,0.16
			c0.71,0.7,0.71,0.69,1.45,0.03c0.01-0.01,0.02-0.02,0.03-0.02c0.15-0.11,0.16-0.23,0.06-0.38c-0.15-0.21-0.3-0.43-0.45-0.65
			c-0.07-0.11-0.12-0.21-0.05-0.34c0.19-0.39,0.42-0.7,0.95-0.59c0.15,0.03,0.3,0,0.45,0c0.09,0,0.21-0.01,0.23-0.11
			c0.08-0.34,0.19-0.71,0.11-1.03c-0.07-0.25-0.45-0.16-0.68-0.24c-0.12-0.04-0.25-0.05-0.38-0.08c-0.1-0.02-0.16-0.07-0.21-0.16
			c-0.25-0.52-0.22-0.71,0.21-1.12c0.06-0.06,0.11-0.12,0.17-0.17c0.27-0.2,0.35-0.4,0.04-0.65c-0.15-0.12-0.27-0.28-0.38-0.44
			c-0.13-0.18-0.24-0.16-0.4-0.04c-0.2,0.15-0.42,0.28-0.64,0.42c-0.11,0.07-0.22,0.11-0.36,0.05
			C149.33,397.5,149.32,397.49,149.33,396.83z"/>
		<path class="st3" d="M137.9,401.77c-0.01,1.34-1.04,2.36-2.36,2.36c-1.31,0-2.44-1.07-2.41-2.29c0.03-1.42,1.07-2.4,2.53-2.38
			C136.86,399.48,137.91,400.57,137.9,401.77z"/>
		<path class="st3" d="M140.64,387.76c0.92-0.01,1.65,0.68,1.66,1.58c0.02,0.88-0.75,1.66-1.63,1.68c-0.91,0.01-1.72-0.74-1.72-1.59
			C138.97,388.44,139.65,387.77,140.64,387.76z"/>
		<path class="st3" d="M146.94,400.29c0-0.75,0.53-1.26,1.3-1.26c0.71,0,1.27,0.53,1.28,1.22c0.01,0.69-0.61,1.31-1.29,1.3
			C147.51,401.53,146.94,400.97,146.94,400.29z"/>
	</g>
</g>
<g id="EXPÉRIENCES_PROFESSIONNELLES" class="st1">
	<g class="st2">
		<path class="st3" d="M120.6,349.6c0-0.69,0-1.37,0-2.06c0.02-0.1,0.05-0.2,0.06-0.3c0.18-2.45,0.83-4.79,2.07-6.93
			c3.34-5.76,8.43-8.9,15.23-9.3c3.26-0.19,6.37,0.48,9.23,2.03c5.96,3.22,9.2,8.17,9.63,14.79c0.2,3.17-0.52,6.2-2.1,8.99
			c-2.81,4.96-7.1,7.99-12.84,9.06c-0.69,0.13-1.4,0.19-2.1,0.28c-0.71,0-1.42,0-2.12,0c-0.09-0.02-0.18-0.05-0.27-0.06
			c-2.22-0.14-4.36-0.66-6.35-1.61c-5.56-2.66-8.96-6.94-10.15-12.86C120.75,350.96,120.7,350.28,120.6,349.6z M135.09,342.05
			c-0.38,0-0.86,0-1.33,0c-0.58,0-0.7,0.12-0.7,0.68c0,3.89,0,7.78,0,11.67c0,0.54,0.13,0.68,0.68,0.68c3.68,0,7.36,0,11.04,0
			c0.54,0,0.68-0.13,0.68-0.64c0-3.93,0-7.85,0-11.78c0-0.48-0.14-0.61-0.63-0.62c-0.45,0-0.9,0-1.43,0
			c0.35-0.27,0.32-0.56,0.25-0.84c-0.19-0.8-0.88-1.36-1.73-1.36c-1.72-0.02-3.44-0.02-5.17,0c-0.88,0.01-1.59,0.6-1.74,1.43
			C134.98,341.51,135.06,341.77,135.09,342.05z M131.94,348.58c0-1.97,0-3.94,0-5.9c0-0.49-0.15-0.63-0.66-0.62
			c-1.12,0.01-1.9,0.75-1.9,1.84c-0.01,3.11-0.01,6.22,0,9.34c0,1.07,0.72,1.79,1.81,1.86c0.57,0.04,0.75-0.12,0.75-0.67
			C131.94,352.47,131.94,350.52,131.94,348.58z M146.58,348.58c0,1.96,0,3.91,0,5.87c0,0.51,0.19,0.67,0.71,0.64
			c1.1-0.06,1.82-0.79,1.83-1.88c0.01-1.6,0-3.2,0-4.8c0-1.49,0.01-2.97,0-4.46c-0.01-1.11-0.75-1.86-1.85-1.89
			c-0.54-0.02-0.69,0.13-0.69,0.66C146.58,344.66,146.58,346.62,146.58,348.58z"/>
		<path class="st5" d="M135.09,342.05c-0.03-0.28-0.11-0.54-0.07-0.77c0.15-0.83,0.86-1.42,1.74-1.43c1.72-0.02,3.44-0.02,5.17,0
			c0.85,0.01,1.53,0.56,1.73,1.36c0.07,0.28,0.11,0.57-0.25,0.84c0.53,0,0.98,0,1.43,0c0.49,0,0.63,0.14,0.63,0.62
			c0,3.93,0,7.85,0,11.78c0,0.51-0.14,0.64-0.68,0.64c-3.68,0-7.36,0-11.04,0c-0.55,0-0.68-0.14-0.68-0.68c0-3.89,0-7.78,0-11.67
			c0-0.56,0.13-0.68,0.7-0.68C134.23,342.05,134.71,342.05,135.09,342.05z M143,342.04c-0.07-0.16-0.17-0.32-0.21-0.49
			c-0.13-0.57-0.43-0.82-1.03-0.83c-0.67-0.01-1.34,0-2.02,0c-0.97,0-1.93-0.01-2.9,0c-0.5,0-0.85,0.3-0.95,0.72
			c-0.05,0.2-0.12,0.4-0.19,0.6C138.12,342.04,140.57,342.04,143,342.04z"/>
		<path class="st5" d="M131.94,348.58c0,1.95,0,3.89,0,5.84c0,0.55-0.18,0.71-0.75,0.67c-1.09-0.07-1.8-0.8-1.81-1.86
			c-0.01-3.11-0.01-6.22,0-9.34c0-1.08,0.78-1.82,1.9-1.84c0.51-0.01,0.66,0.13,0.66,0.62
			C131.94,344.64,131.94,346.61,131.94,348.58z"/>
		<path class="st5" d="M146.58,348.58c0-1.96,0-3.91,0-5.87c0-0.53,0.15-0.67,0.69-0.66c1.1,0.03,1.84,0.79,1.85,1.89
			c0.01,1.49,0,2.97,0,4.46c0,1.6,0.01,3.2,0,4.8c-0.01,1.09-0.72,1.81-1.83,1.88c-0.53,0.03-0.71-0.14-0.71-0.64
			C146.58,352.49,146.58,350.53,146.58,348.58z"/>
		<path class="st3" d="M143,342.04c-2.43,0-4.88,0-7.29,0c0.06-0.2,0.14-0.4,0.19-0.6c0.1-0.42,0.46-0.71,0.95-0.72
			c0.97-0.01,1.93,0,2.9,0c0.67,0,1.34,0,2.02,0c0.6,0.01,0.9,0.26,1.03,0.83C142.83,341.72,142.93,341.87,143,342.04z"/>
	</g>
</g>
<g id="FORMATIONS" class="st1">
	<circle class="st6" cx="138" cy="298.74" r="17.5"/>
	<g class="st2">
		<path class="st5" d="M147.9,297.17c-0.58,0.39-1.12,0.75-1.65,1.12c-0.06,0.04-0.08,0.17-0.08,0.26c0,1.38-0.04,2.75,0.01,4.13
			c0.08,2.37-0.95,4.15-2.82,5.5c-1.72,1.25-3.67,1.77-5.77,1.78c-2.14,0.01-4.13-0.51-5.88-1.79c-1.25-0.91-2.24-2.03-2.61-3.58
			c-0.12-0.49-0.18-1.01-0.19-1.52c-0.02-1.5-0.01-3,0-4.51c0-0.17-0.05-0.28-0.19-0.37c-1.06-0.71-2.12-1.42-3.18-2.14
			c-0.91-0.61-0.9-1.57,0.04-2.14c3.73-2.24,7.46-4.47,11.19-6.72c0.54-0.33,1.02-0.32,1.56,0c3.65,2.2,7.3,4.39,10.96,6.58
			c0.13,0.08,0.27,0.15,0.39,0.23c0.36,0.23,0.55,0.57,0.55,0.99c0,1.5,0,3-0.01,4.51c0,0.71-0.49,1.24-1.15,1.24
			c-0.67,0-1.15-0.53-1.15-1.26C147.9,298.75,147.9,297.99,147.9,297.17z M128.17,295.06c0.07,0.05,0.11,0.08,0.14,0.11
			c3.02,2.04,6.04,4.07,9.05,6.12c0.16,0.11,0.25,0.06,0.38-0.03c2.77-1.87,5.54-3.74,8.32-5.61c0.27-0.18,0.54-0.37,0.84-0.57
			c-0.1-0.07-0.16-0.11-0.23-0.15c-2.98-1.79-5.95-3.57-8.92-5.36c-0.17-0.1-0.28-0.08-0.43,0.01c-2.2,1.33-4.41,2.65-6.61,3.97
			C129.87,294.04,129.04,294.54,128.17,295.06z M131.21,299.9c0,1.18-0.01,2.29,0,3.41c0.01,0.83,0.33,1.56,0.9,2.17
			c0.54,0.59,1.17,1.06,1.89,1.42c1.35,0.67,2.79,0.85,4.27,0.75c1.75-0.13,3.28-0.76,4.53-2c0.69-0.69,1.06-1.51,1.06-2.48
			c0-1.01,0-2.01,0-3.02c0-0.06-0.02-0.13-0.03-0.21c-0.1,0.06-0.16,0.11-0.23,0.15c-1.77,1.19-3.53,2.38-5.3,3.57
			c-0.57,0.38-0.98,0.38-1.54,0c-1.51-1.02-3.02-2.04-4.54-3.06C131.91,300.36,131.58,300.15,131.21,299.9z"/>
	</g>
</g>
</svg>
